<svg width="1024" height="753" viewBox="0 0 1024 753" fill="none" xmlns="http://www.w3.org/2000/svg">
<g clip-path="url(#clip0_122_130)">
<rect width="1024" height="753" fill="#121214"/>
<g opacity="0.2" filter="url(#filter0_f_122_130)">
<ellipse cx="512.5" cy="-94" rx="670.5" ry="350" fill="#338AF3"/>
</g>
<path d="M33.0349 -94C34.5302 -94 35.6622 -93.3696 36.4308 -92.1088C37.2134 -90.8619 37.6047 -89.0469 37.6047 -86.6639C37.6047 -84.2809 37.2134 -82.459 36.4308 -81.1982C35.6622 -79.9374 34.5302 -79.307 33.0349 -79.307C31.5536 -79.307 30.4216 -79.9374 29.639 -81.1982C28.8564 -82.459 28.4651 -84.2809 28.4651 -86.6639C28.4651 -89.0331 28.8564 -90.848 29.639 -92.1088C30.4216 -93.3696 31.5536 -94 33.0349 -94ZM29.9534 -86.6639C29.9534 -84.9736 30.1072 -83.6505 30.4146 -82.6945L35.0683 -91.901C34.5791 -92.5522 33.9013 -92.8778 33.0349 -92.8778C32.0706 -92.8778 31.316 -92.3651 30.771 -91.3399C30.2259 -90.3285 29.9534 -88.7698 29.9534 -86.6639ZM33.0349 -80.45C34.0131 -80.45 34.7748 -80.9557 35.3198 -81.9671C35.8648 -82.9924 36.1373 -84.558 36.1373 -86.6639C36.1373 -88.4512 35.9627 -89.8366 35.6133 -90.8203L30.9596 -81.5307C31.4627 -80.8102 32.1545 -80.45 33.0349 -80.45Z" fill="url(#paint0_linear_122_130)" fill-opacity="0.6"/>
<path d="M34.2926 -56.8652H37.3741V-55.7638H29.3874V-56.8652H32.9511V-68.5448L29.5551 -66.5289L28.9682 -67.4641L33.1607 -70.0411H34.2926V-56.8652Z" fill="url(#paint1_linear_122_130)" fill-opacity="0.6"/>
<path d="M33.0349 -46.4979C34.5302 -46.4979 35.6622 -45.8675 36.4308 -44.6067C37.2134 -43.3598 37.6047 -41.5448 37.6047 -39.1618C37.6047 -36.7788 37.2134 -34.9568 36.4308 -33.6961C35.6622 -32.4353 34.5302 -31.8049 33.0349 -31.8049C31.5536 -31.8049 30.4216 -32.4353 29.639 -33.6961C28.8564 -34.9568 28.4651 -36.7788 28.4651 -39.1618C28.4651 -41.5309 28.8564 -43.3459 29.639 -44.6067C30.4216 -45.8675 31.5536 -46.4979 33.0349 -46.4979ZM29.9534 -39.1618C29.9534 -37.4715 30.1072 -36.1484 30.4146 -35.1924L35.0683 -44.3989C34.5791 -45.0501 33.9013 -45.3756 33.0349 -45.3756C32.0706 -45.3756 31.316 -44.863 30.771 -43.8378C30.2259 -42.8264 29.9534 -41.2677 29.9534 -39.1618ZM33.0349 -32.9479C34.0131 -32.9479 34.7748 -33.4536 35.3198 -34.465C35.8648 -35.4903 36.1373 -37.0558 36.1373 -39.1618C36.1373 -40.949 35.9627 -42.3345 35.6133 -43.3182L30.9596 -34.0286C31.4627 -33.3081 32.1545 -32.9479 33.0349 -32.9479Z" fill="url(#paint2_linear_122_130)" fill-opacity="0.6"/>
<path d="M34.2926 -9.36311H37.3741V-8.26164H29.3874V-9.36311H32.9511V-21.0427L29.5551 -19.0268L28.9682 -19.962L33.1607 -22.539H34.2926V-9.36311Z" fill="url(#paint3_linear_122_130)" fill-opacity="0.6"/>
<path d="M34.2926 14.388H37.3741V15.4894H29.3874V14.388H32.9511V2.70837L29.5551 4.72424L28.9682 3.78905L33.1607 1.21206H34.2926V14.388Z" fill="url(#paint4_linear_122_130)" fill-opacity="0.6"/>
<path d="M33.0349 24.7553C34.5302 24.7553 35.6622 25.3857 36.4308 26.6465C37.2134 27.8934 37.6047 29.7084 37.6047 32.0914C37.6047 34.4744 37.2134 36.2963 36.4308 37.5571C35.6622 38.8179 34.5302 39.4483 33.0349 39.4483C31.5536 39.4483 30.4216 38.8179 29.639 37.5571C28.8564 36.2963 28.4651 34.4744 28.4651 32.0914C28.4651 29.7222 28.8564 27.9073 29.639 26.6465C30.4216 25.3857 31.5536 24.7553 33.0349 24.7553ZM29.9534 32.0914C29.9534 33.7817 30.1072 35.1048 30.4146 36.0608L35.0683 26.8543C34.5791 26.2031 33.9013 25.8775 33.0349 25.8775C32.0706 25.8775 31.316 26.3902 30.771 27.4154C30.2259 28.4268 29.9534 29.9855 29.9534 32.0914ZM33.0349 38.3053C34.0131 38.3053 34.7748 37.7996 35.3198 36.7882C35.8648 35.7629 36.1373 34.1973 36.1373 32.0914C36.1373 30.3041 35.9627 28.9187 35.6133 27.935L30.9596 37.2246C31.4627 37.9451 32.1545 38.3053 33.0349 38.3053Z" fill="url(#paint5_linear_122_130)" fill-opacity="0.6"/>
<path d="M34.2926 61.8901H37.3741V62.9915H29.3874V61.8901H32.9511V50.2105L29.5551 52.2264L28.9682 51.2912L33.1607 48.7142H34.2926V61.8901Z" fill="url(#paint6_linear_122_130)" fill-opacity="0.6"/>
<path d="M33.0349 72.2574C34.5302 72.2574 35.6622 72.8878 36.4308 74.1486C37.2134 75.3955 37.6047 77.2105 37.6047 79.5935C37.6047 81.9765 37.2134 83.7984 36.4308 85.0592C35.6622 86.32 34.5302 86.9504 33.0349 86.9504C31.5536 86.9504 30.4216 86.32 29.639 85.0592C28.8564 83.7984 28.4651 81.9765 28.4651 79.5935C28.4651 77.2244 28.8564 75.4094 29.639 74.1486C30.4216 72.8878 31.5536 72.2574 33.0349 72.2574ZM29.9534 79.5935C29.9534 81.2838 30.1072 82.6069 30.4146 83.5629L35.0683 74.3564C34.5791 73.7052 33.9013 73.3796 33.0349 73.3796C32.0706 73.3796 31.316 73.8923 30.771 74.9175C30.2259 75.9289 29.9534 77.4876 29.9534 79.5935ZM33.0349 85.8074C34.0131 85.8074 34.7748 85.3017 35.3198 84.2903C35.8648 83.265 36.1373 81.6994 36.1373 79.5935C36.1373 77.8063 35.9627 76.4208 35.6133 75.4371L30.9596 84.7267C31.4627 85.4472 32.1545 85.8074 33.0349 85.8074Z" fill="url(#paint7_linear_122_130)" fill-opacity="0.6"/>
<path d="M33.0349 96.0085C34.5302 96.0085 35.6622 96.6389 36.4308 97.8997C37.2134 99.1466 37.6047 100.962 37.6047 103.345C37.6047 105.728 37.2134 107.549 36.4308 108.81C35.6622 110.071 34.5302 110.701 33.0349 110.701C31.5536 110.701 30.4216 110.071 29.639 108.81C28.8564 107.549 28.4651 105.728 28.4651 103.345C28.4651 100.975 28.8564 99.1604 29.639 97.8997C30.4216 96.6389 31.5536 96.0085 33.0349 96.0085ZM29.9534 103.345C29.9534 105.035 30.1072 106.358 30.4146 107.314L35.0683 98.1075C34.5791 97.4563 33.9013 97.1307 33.0349 97.1307C32.0706 97.1307 31.316 97.6434 30.771 98.6686C30.2259 99.68 29.9534 101.239 29.9534 103.345ZM33.0349 109.558C34.0131 109.558 34.7748 109.053 35.3198 108.041C35.8648 107.016 36.1373 105.451 36.1373 103.345C36.1373 101.557 35.9627 100.172 35.6133 99.1881L30.9596 108.478C31.4627 109.198 32.1545 109.558 33.0349 109.558Z" fill="url(#paint8_linear_122_130)" fill-opacity="0.6"/>
<path d="M34.2926 133.143H37.3741V134.245H29.3874V133.143H32.9511V121.464L29.5551 123.48L28.9682 122.544L33.1607 119.967H34.2926V133.143Z" fill="url(#paint9_linear_122_130)" fill-opacity="0.6"/>
<path d="M33.0349 143.511C34.5302 143.511 35.6622 144.141 36.4308 145.402C37.2134 146.649 37.6047 148.464 37.6047 150.847C37.6047 153.23 37.2134 155.052 36.4308 156.312C35.6622 157.573 34.5302 158.204 33.0349 158.204C31.5536 158.204 30.4216 157.573 29.639 156.312C28.8564 155.052 28.4651 153.23 28.4651 150.847C28.4651 148.478 28.8564 146.663 29.639 145.402C30.4216 144.141 31.5536 143.511 33.0349 143.511ZM29.9534 150.847C29.9534 152.537 30.1072 153.86 30.4146 154.816L35.0683 145.61C34.5791 144.958 33.9013 144.633 33.0349 144.633C32.0706 144.633 31.316 145.145 30.771 146.171C30.2259 147.182 29.9534 148.741 29.9534 150.847ZM33.0349 157.061C34.0131 157.061 34.7748 156.555 35.3198 155.543C35.8648 154.518 36.1373 152.953 36.1373 150.847C36.1373 149.059 35.9627 147.674 35.6133 146.69L30.9596 155.98C31.4627 156.7 32.1545 157.061 33.0349 157.061Z" fill="url(#paint10_linear_122_130)" fill-opacity="0.6"/>
<path d="M34.2926 180.645H37.3741V181.747H29.3874V180.645H32.9511V168.966L29.5551 170.982L28.9682 170.046L33.1607 167.469H34.2926V180.645Z" fill="url(#paint11_linear_122_130)" fill-opacity="0.6"/>
<path d="M34.2926 204.396H37.3741V205.498H29.3874V204.396H32.9511V192.717L29.5551 194.733L28.9682 193.798L33.1607 191.221H34.2926V204.396Z" fill="url(#paint12_linear_122_130)" fill-opacity="0.6"/>
<path d="M71.9651 -46.4979C73.4604 -46.4979 74.5924 -45.8675 75.361 -44.6067C76.1436 -43.3598 76.5349 -41.5448 76.5349 -39.1618C76.5349 -36.7788 76.1436 -34.9568 75.361 -33.6961C74.5924 -32.4353 73.4604 -31.8049 71.9651 -31.8049C70.4838 -31.8049 69.3518 -32.4353 68.5692 -33.6961C67.7866 -34.9568 67.3953 -36.7788 67.3953 -39.1618C67.3953 -41.5309 67.7866 -43.3459 68.5692 -44.6067C69.3518 -45.8675 70.4838 -46.4979 71.9651 -46.4979ZM68.8836 -39.1618C68.8836 -37.4715 69.0374 -36.1484 69.3448 -35.1924L73.9985 -44.3989C73.5093 -45.0501 72.8315 -45.3756 71.9651 -45.3756C71.0008 -45.3756 70.2462 -44.863 69.7012 -43.8378C69.1561 -42.8264 68.8836 -41.2677 68.8836 -39.1618ZM71.9651 -32.9479C72.9433 -32.9479 73.705 -33.4536 74.25 -34.465C74.795 -35.4903 75.0675 -37.0558 75.0675 -39.1618C75.0675 -40.949 74.8928 -42.3345 74.5435 -43.3182L69.8898 -34.0286C70.3929 -33.3081 71.0847 -32.9479 71.9651 -32.9479Z" fill="url(#paint13_linear_122_130)" fill-opacity="0.6"/>
<path d="M73.2228 -9.36311H76.3043V-8.26164H68.3176V-9.36311H71.8812V-21.0427L68.4853 -19.0268L67.8984 -19.962L72.0909 -22.539H73.2228V-9.36311Z" fill="url(#paint14_linear_122_130)" fill-opacity="0.6"/>
<path d="M71.9651 1.00423C73.4604 1.00423 74.5924 1.63463 75.361 2.89542C76.1436 4.14234 76.5349 5.95732 76.5349 8.34035C76.5349 10.7234 76.1436 12.5453 75.361 13.8061C74.5924 15.0668 73.4604 15.6972 71.9651 15.6972C70.4838 15.6972 69.3518 15.0668 68.5692 13.8061C67.7866 12.5453 67.3953 10.7234 67.3953 8.34035C67.3953 5.97118 67.7866 4.1562 68.5692 2.89542C69.3518 1.63463 70.4838 1.00423 71.9651 1.00423ZM68.8836 8.34035C68.8836 10.0306 69.0374 11.3538 69.3448 12.3097L73.9985 3.10323C73.5093 2.45206 72.8315 2.12647 71.9651 2.12647C71.0008 2.12647 70.2462 2.6391 69.7012 3.66435C69.1561 4.67575 68.8836 6.23441 68.8836 8.34035ZM71.9651 14.5542C72.9433 14.5542 73.705 14.0485 74.25 13.0371C74.795 12.0119 75.0675 10.4463 75.0675 8.34035C75.0675 6.55308 74.8928 5.16759 74.5435 4.18391L69.8898 13.4735C70.3929 14.194 71.0847 14.5542 71.9651 14.5542Z" fill="url(#paint15_linear_122_130)" fill-opacity="0.6"/>
<path d="M71.9651 24.7553C73.4604 24.7553 74.5924 25.3857 75.361 26.6465C76.1436 27.8934 76.5349 29.7084 76.5349 32.0914C76.5349 34.4744 76.1436 36.2963 75.361 37.5571C74.5924 38.8179 73.4604 39.4483 71.9651 39.4483C70.4838 39.4483 69.3518 38.8179 68.5692 37.5571C67.7866 36.2963 67.3953 34.4744 67.3953 32.0914C67.3953 29.7222 67.7866 27.9073 68.5692 26.6465C69.3518 25.3857 70.4838 24.7553 71.9651 24.7553ZM68.8836 32.0914C68.8836 33.7817 69.0374 35.1048 69.3448 36.0608L73.9985 26.8543C73.5093 26.2031 72.8315 25.8775 71.9651 25.8775C71.0008 25.8775 70.2462 26.3902 69.7012 27.4154C69.1561 28.4268 68.8836 29.9855 68.8836 32.0914ZM71.9651 38.3053C72.9433 38.3053 73.705 37.7996 74.25 36.7882C74.795 35.7629 75.0675 34.1973 75.0675 32.0914C75.0675 30.3041 74.8928 28.9187 74.5435 27.935L69.8898 37.2246C70.3929 37.9451 71.0847 38.3053 71.9651 38.3053Z" fill="url(#paint16_linear_122_130)" fill-opacity="0.6"/>
<path d="M73.2228 61.8901H76.3043V62.9915H68.3176V61.8901H71.8812V50.2105L68.4853 52.2264L67.8984 51.2912L72.0909 48.7142H73.2228V61.8901Z" fill="url(#paint17_linear_122_130)" fill-opacity="0.6"/>
<path d="M71.9651 72.2574C73.4604 72.2574 74.5924 72.8878 75.361 74.1486C76.1436 75.3955 76.5349 77.2105 76.5349 79.5935C76.5349 81.9765 76.1436 83.7984 75.361 85.0592C74.5924 86.32 73.4604 86.9504 71.9651 86.9504C70.4838 86.9504 69.3518 86.32 68.5692 85.0592C67.7866 83.7984 67.3953 81.9765 67.3953 79.5935C67.3953 77.2244 67.7866 75.4094 68.5692 74.1486C69.3518 72.8878 70.4838 72.2574 71.9651 72.2574ZM68.8836 79.5935C68.8836 81.2838 69.0374 82.6069 69.3448 83.5629L73.9985 74.3564C73.5093 73.7052 72.8315 73.3796 71.9651 73.3796C71.0008 73.3796 70.2462 73.8923 69.7012 74.9175C69.1561 75.9289 68.8836 77.4876 68.8836 79.5935ZM71.9651 85.8074C72.9433 85.8074 73.705 85.3017 74.25 84.2903C74.795 83.265 75.0675 81.6994 75.0675 79.5935C75.0675 77.8063 74.8928 76.4208 74.5435 75.4371L69.8898 84.7267C70.3929 85.4472 71.0847 85.8074 71.9651 85.8074Z" fill="url(#paint18_linear_122_130)" fill-opacity="0.6"/>
<path d="M73.2228 109.392H76.3043V110.494H68.3176V109.392H71.8812V97.7126L68.4853 99.7285L67.8984 98.7933L72.0909 96.2163H73.2228V109.392Z" fill="url(#paint19_linear_122_130)" fill-opacity="0.6"/>
<path d="M71.9651 119.76C73.4604 119.76 74.5924 120.39 75.361 121.651C76.1436 122.898 76.5349 124.713 76.5349 127.096C76.5349 129.479 76.1436 131.301 75.361 132.561C74.5924 133.822 73.4604 134.453 71.9651 134.453C70.4838 134.453 69.3518 133.822 68.5692 132.561C67.7866 131.301 67.3953 129.479 67.3953 127.096C67.3953 124.726 67.7866 122.911 68.5692 121.651C69.3518 120.39 70.4838 119.76 71.9651 119.76ZM68.8836 127.096C68.8836 128.786 69.0374 130.109 69.3448 131.065L73.9985 121.859C73.5093 121.207 72.8315 120.882 71.9651 120.882C71.0008 120.882 70.2462 121.394 69.7012 122.42C69.1561 123.431 68.8836 124.99 68.8836 127.096ZM71.9651 133.31C72.9433 133.31 73.705 132.804 74.25 131.792C74.795 130.767 75.0675 129.202 75.0675 127.096C75.0675 125.308 74.8928 123.923 74.5435 122.939L69.8898 132.229C70.3929 132.949 71.0847 133.31 71.9651 133.31Z" fill="url(#paint20_linear_122_130)" fill-opacity="0.6"/>
<path d="M71.9651 143.511C73.4604 143.511 74.5924 144.141 75.361 145.402C76.1436 146.649 76.5349 148.464 76.5349 150.847C76.5349 153.23 76.1436 155.052 75.361 156.312C74.5924 157.573 73.4604 158.204 71.9651 158.204C70.4838 158.204 69.3518 157.573 68.5692 156.312C67.7866 155.052 67.3953 153.23 67.3953 150.847C67.3953 148.478 67.7866 146.663 68.5692 145.402C69.3518 144.141 70.4838 143.511 71.9651 143.511ZM68.8836 150.847C68.8836 152.537 69.0374 153.86 69.3448 154.816L73.9985 145.61C73.5093 144.958 72.8315 144.633 71.9651 144.633C71.0008 144.633 70.2462 145.145 69.7012 146.171C69.1561 147.182 68.8836 148.741 68.8836 150.847ZM71.9651 157.061C72.9433 157.061 73.705 156.555 74.25 155.543C74.795 154.518 75.0675 152.953 75.0675 150.847C75.0675 149.059 74.8928 147.674 74.5435 146.69L69.8898 155.98C70.3929 156.7 71.0847 157.061 71.9651 157.061Z" fill="url(#paint21_linear_122_130)" fill-opacity="0.6"/>
<path d="M73.2228 180.645H76.3043V181.747H68.3176V180.645H71.8812V168.966L68.4853 170.982L67.8984 170.046L72.0909 167.469H73.2228V180.645Z" fill="url(#paint22_linear_122_130)" fill-opacity="0.6"/>
<path d="M71.9651 191.013C73.4604 191.013 74.5924 191.643 75.361 192.904C76.1436 194.151 76.5349 195.966 76.5349 198.349C76.5349 200.732 76.1436 202.554 75.361 203.815C74.5924 205.075 73.4604 205.706 71.9651 205.706C70.4838 205.706 69.3518 205.075 68.5692 203.815C67.7866 202.554 67.3953 200.732 67.3953 198.349C67.3953 195.98 67.7866 194.165 68.5692 192.904C69.3518 191.643 70.4838 191.013 71.9651 191.013ZM68.8836 198.349C68.8836 200.039 69.0374 201.362 69.3448 202.318L73.9985 193.112C73.5093 192.461 72.8315 192.135 71.9651 192.135C71.0008 192.135 70.2462 192.648 69.7012 193.673C69.1561 194.684 68.8836 196.243 68.8836 198.349ZM71.9651 204.563C72.9433 204.563 73.705 204.057 74.25 203.046C74.795 202.02 75.0675 200.455 75.0675 198.349C75.0675 196.562 74.8928 195.176 74.5435 194.192L69.8898 203.482C70.3929 204.202 71.0847 204.563 71.9651 204.563Z" fill="url(#paint23_linear_122_130)" fill-opacity="0.6"/>
<path d="M73.2228 228.147H76.3043V229.249H68.3176V228.147H71.8812V216.468L68.4853 218.484L67.8984 217.549L72.0909 214.972H73.2228V228.147Z" fill="url(#paint24_linear_122_130)" fill-opacity="0.6"/>
<path d="M73.2228 251.899H76.3043V253H68.3176V251.899H71.8812V240.219L68.4853 242.235L67.8984 241.3L72.0909 238.723H73.2228V251.899Z" fill="url(#paint25_linear_122_130)" fill-opacity="0.6"/>
<path d="M13.5698 -22.7468C15.0651 -22.7468 16.1971 -22.1164 16.9657 -20.8556C17.7483 -19.6087 18.1396 -17.7937 18.1396 -15.4107C18.1396 -13.0277 17.7483 -11.2058 16.9657 -9.94501C16.1971 -8.68422 15.0651 -8.05383 13.5698 -8.05383C12.0885 -8.05383 10.9565 -8.68422 10.1739 -9.94501C9.3913 -11.2058 9 -13.0277 9 -15.4107C9 -17.7799 9.3913 -19.5949 10.1739 -20.8556C10.9565 -22.1164 12.0885 -22.7468 13.5698 -22.7468ZM10.4883 -15.4107C10.4883 -13.7204 10.6421 -12.3973 10.9495 -11.4413L15.6032 -20.6478C15.114 -21.299 14.4363 -21.6246 13.5698 -21.6246C12.6055 -21.6246 11.8509 -21.112 11.3059 -20.0867C10.7608 -19.0753 10.4883 -17.5166 10.4883 -15.4107ZM13.5698 -9.19685C14.5481 -9.19685 15.3097 -9.70255 15.8547 -10.714C16.3997 -11.7392 16.6722 -13.3048 16.6722 -15.4107C16.6722 -17.198 16.4976 -18.5835 16.1482 -19.5672L11.4945 -10.2775C11.9976 -9.55707 12.6894 -9.19685 13.5698 -9.19685Z" fill="url(#paint26_linear_122_130)" fill-opacity="0.6"/>
<path d="M13.5698 1.00423C15.0651 1.00423 16.1971 1.63463 16.9657 2.89542C17.7483 4.14234 18.1396 5.95732 18.1396 8.34035C18.1396 10.7234 17.7483 12.5453 16.9657 13.8061C16.1971 15.0668 15.0651 15.6972 13.5698 15.6972C12.0885 15.6972 10.9565 15.0668 10.1739 13.8061C9.3913 12.5453 9 10.7234 9 8.34035C9 5.97118 9.3913 4.1562 10.1739 2.89542C10.9565 1.63463 12.0885 1.00423 13.5698 1.00423ZM10.4883 8.34035C10.4883 10.0306 10.6421 11.3538 10.9495 12.3097L15.6032 3.10323C15.114 2.45206 14.4363 2.12647 13.5698 2.12647C12.6055 2.12647 11.8509 2.6391 11.3059 3.66435C10.7608 4.67575 10.4883 6.23441 10.4883 8.34035ZM13.5698 14.5542C14.5481 14.5542 15.3097 14.0485 15.8547 13.0371C16.3997 12.0119 16.6722 10.4463 16.6722 8.34035C16.6722 6.55308 16.4976 5.16759 16.1482 4.18391L11.4945 13.4735C11.9976 14.194 12.6894 14.5542 13.5698 14.5542Z" fill="url(#paint27_linear_122_130)" fill-opacity="0.6"/>
<path d="M14.8276 38.139H17.909V39.2405H9.92235V38.139H13.486V26.4594L10.09 28.4753L9.5031 27.5401L13.6956 24.9631H14.8276V38.139Z" fill="url(#paint28_linear_122_130)" fill-opacity="0.6"/>
<path d="M13.5698 48.5063C15.0651 48.5063 16.1971 49.1367 16.9657 50.3975C17.7483 51.6445 18.1396 53.4594 18.1396 55.8425C18.1396 58.2255 17.7483 60.0474 16.9657 61.3082C16.1971 62.569 15.0651 63.1994 13.5698 63.1994C12.0885 63.1994 10.9565 62.569 10.1739 61.3082C9.3913 60.0474 9 58.2255 9 55.8425C9 53.4733 9.3913 51.6583 10.1739 50.3975C10.9565 49.1367 12.0885 48.5063 13.5698 48.5063ZM10.4883 55.8425C10.4883 57.5327 10.6421 58.8559 10.9495 59.8119L15.6032 50.6054C15.114 49.9542 14.4363 49.6286 13.5698 49.6286C12.6055 49.6286 11.8509 50.1412 11.3059 51.1665C10.7608 52.1779 10.4883 53.7365 10.4883 55.8425ZM13.5698 62.0563C14.5481 62.0563 15.3097 61.5506 15.8547 60.5392C16.3997 59.514 16.6722 57.9484 16.6722 55.8425C16.6722 54.0552 16.4976 52.6697 16.1482 51.686L11.4945 60.9757C11.9976 61.6961 12.6894 62.0563 13.5698 62.0563Z" fill="url(#paint29_linear_122_130)" fill-opacity="0.6"/>
<path d="M14.8276 85.6411H17.909V86.7426H9.92235V85.6411H13.486V73.9616L10.09 75.9774L9.5031 75.0422L13.6956 72.4652H14.8276V85.6411Z" fill="url(#paint30_linear_122_130)" fill-opacity="0.6"/>
<path d="M14.8276 109.392H17.909V110.494H9.92235V109.392H13.486V97.7126L10.09 99.7285L9.5031 98.7933L13.6956 96.2163H14.8276V109.392Z" fill="url(#paint31_linear_122_130)" fill-opacity="0.6"/>
<path d="M53.7577 -56.8652H56.8392V-55.7638H48.8525V-56.8652H52.4162V-68.5448L49.0202 -66.5289L48.4333 -67.4641L52.6258 -70.0411H53.7577V-56.8652Z" fill="url(#paint32_linear_122_130)" fill-opacity="0.6"/>
<path d="M52.5 -46.4979C53.9953 -46.4979 55.1273 -45.8675 55.8959 -44.6067C56.6785 -43.3598 57.0698 -41.5448 57.0698 -39.1618C57.0698 -36.7788 56.6785 -34.9568 55.8959 -33.6961C55.1273 -32.4353 53.9953 -31.8049 52.5 -31.8049C51.0187 -31.8049 49.8867 -32.4353 49.1041 -33.6961C48.3215 -34.9568 47.9302 -36.7788 47.9302 -39.1618C47.9302 -41.5309 48.3215 -43.3459 49.1041 -44.6067C49.8867 -45.8675 51.0187 -46.4979 52.5 -46.4979ZM49.4185 -39.1618C49.4185 -37.4715 49.5723 -36.1484 49.8797 -35.1924L54.5334 -44.3989C54.0442 -45.0501 53.3664 -45.3756 52.5 -45.3756C51.5357 -45.3756 50.7811 -44.863 50.2361 -43.8378C49.691 -42.8264 49.4185 -41.2677 49.4185 -39.1618ZM52.5 -32.9479C53.4782 -32.9479 54.2399 -33.4536 54.7849 -34.465C55.3299 -35.4903 55.6024 -37.0558 55.6024 -39.1618C55.6024 -40.949 55.4277 -42.3345 55.0784 -43.3182L50.4247 -34.0286C50.9278 -33.3081 51.6196 -32.9479 52.5 -32.9479Z" fill="url(#paint33_linear_122_130)" fill-opacity="0.6"/>
<path d="M53.7577 -9.36311H56.8392V-8.26164H48.8525V-9.36311H52.4162V-21.0427L49.0202 -19.0268L48.4333 -19.962L52.6258 -22.539H53.7577V-9.36311Z" fill="url(#paint34_linear_122_130)" fill-opacity="0.6"/>
<path d="M53.7577 14.388H56.8392V15.4894H48.8525V14.388H52.4162V2.70837L49.0202 4.72424L48.4333 3.78905L52.6258 1.21206H53.7577V14.388Z" fill="url(#paint35_linear_122_130)" fill-opacity="0.6"/>
<path d="M52.5 24.7553C53.9953 24.7553 55.1273 25.3857 55.8959 26.6465C56.6785 27.8934 57.0698 29.7084 57.0698 32.0914C57.0698 34.4744 56.6785 36.2963 55.8959 37.5571C55.1273 38.8179 53.9953 39.4483 52.5 39.4483C51.0187 39.4483 49.8867 38.8179 49.1041 37.5571C48.3215 36.2963 47.9302 34.4744 47.9302 32.0914C47.9302 29.7222 48.3215 27.9073 49.1041 26.6465C49.8867 25.3857 51.0187 24.7553 52.5 24.7553ZM49.4185 32.0914C49.4185 33.7817 49.5723 35.1048 49.8797 36.0608L54.5334 26.8543C54.0442 26.2031 53.3664 25.8775 52.5 25.8775C51.5357 25.8775 50.7811 26.3902 50.2361 27.4154C49.691 28.4268 49.4185 29.9855 49.4185 32.0914ZM52.5 38.3053C53.4782 38.3053 54.2399 37.7996 54.7849 36.7882C55.3299 35.7629 55.6024 34.1973 55.6024 32.0914C55.6024 30.3041 55.4277 28.9187 55.0784 27.935L50.4247 37.2246C50.9278 37.9451 51.6196 38.3053 52.5 38.3053Z" fill="url(#paint36_linear_122_130)" fill-opacity="0.6"/>
<path d="M53.7577 61.8901H56.8392V62.9915H48.8525V61.8901H52.4162V50.2105L49.0202 52.2264L48.4333 51.2912L52.6258 48.7142H53.7577V61.8901Z" fill="url(#paint37_linear_122_130)" fill-opacity="0.6"/>
<path d="M53.7577 85.6411H56.8392V86.7426H48.8525V85.6411H52.4162V73.9616L49.0202 75.9774L48.4333 75.0422L52.6258 72.4652H53.7577V85.6411Z" fill="url(#paint38_linear_122_130)" fill-opacity="0.6"/>
<path d="M52.5 96.0085C53.9953 96.0085 55.1273 96.6389 55.8959 97.8997C56.6785 99.1466 57.0698 100.962 57.0698 103.345C57.0698 105.728 56.6785 107.549 55.8959 108.81C55.1273 110.071 53.9953 110.701 52.5 110.701C51.0187 110.701 49.8867 110.071 49.1041 108.81C48.3215 107.549 47.9302 105.728 47.9302 103.345C47.9302 100.975 48.3215 99.1604 49.1041 97.8997C49.8867 96.6389 51.0187 96.0085 52.5 96.0085ZM49.4185 103.345C49.4185 105.035 49.5723 106.358 49.8797 107.314L54.5334 98.1075C54.0442 97.4563 53.3664 97.1307 52.5 97.1307C51.5357 97.1307 50.7811 97.6434 50.2361 98.6686C49.691 99.68 49.4185 101.239 49.4185 103.345ZM52.5 109.558C53.4782 109.558 54.2399 109.053 54.7849 108.041C55.3299 107.016 55.6024 105.451 55.6024 103.345C55.6024 101.557 55.4277 100.172 55.0784 99.1881L50.4247 108.478C50.9278 109.198 51.6196 109.558 52.5 109.558Z" fill="url(#paint39_linear_122_130)" fill-opacity="0.6"/>
<path d="M53.7577 133.143H56.8392V134.245H48.8525V133.143H52.4162V121.464L49.0202 123.48L48.4333 122.544L52.6258 119.967H53.7577V133.143Z" fill="url(#paint40_linear_122_130)" fill-opacity="0.6"/>
<path d="M52.5 143.511C53.9953 143.511 55.1273 144.141 55.8959 145.402C56.6785 146.649 57.0698 148.464 57.0698 150.847C57.0698 153.23 56.6785 155.052 55.8959 156.312C55.1273 157.573 53.9953 158.204 52.5 158.204C51.0187 158.204 49.8867 157.573 49.1041 156.312C48.3215 155.052 47.9302 153.23 47.9302 150.847C47.9302 148.478 48.3215 146.663 49.1041 145.402C49.8867 144.141 51.0187 143.511 52.5 143.511ZM49.4185 150.847C49.4185 152.537 49.5723 153.86 49.8797 154.816L54.5334 145.61C54.0442 144.958 53.3664 144.633 52.5 144.633C51.5357 144.633 50.7811 145.145 50.2361 146.171C49.691 147.182 49.4185 148.741 49.4185 150.847ZM52.5 157.061C53.4782 157.061 54.2399 156.555 54.7849 155.543C55.3299 154.518 55.6024 152.953 55.6024 150.847C55.6024 149.059 55.4277 147.674 55.0784 146.69L50.4247 155.98C50.9278 156.7 51.6196 157.061 52.5 157.061Z" fill="url(#paint41_linear_122_130)" fill-opacity="0.6"/>
<path d="M91.4302 -70.2489C92.9255 -70.2489 94.0575 -69.6185 94.8261 -68.3578C95.6087 -67.1108 96 -65.2959 96 -62.9128C96 -60.5298 95.6087 -58.7079 94.8261 -57.4471C94.0575 -56.1863 92.9255 -55.5559 91.4302 -55.5559C89.9489 -55.5559 88.8169 -56.1863 88.0343 -57.4471C87.2517 -58.7079 86.8604 -60.5298 86.8604 -62.9128C86.8604 -65.282 87.2517 -67.097 88.0343 -68.3578C88.8169 -69.6185 89.9489 -70.2489 91.4302 -70.2489ZM88.3487 -62.9128C88.3487 -61.2225 88.5024 -59.8994 88.8099 -58.9434L93.4636 -68.1499C92.9744 -68.8011 92.2966 -69.1267 91.4302 -69.1267C90.4659 -69.1267 89.7113 -68.6141 89.1663 -67.5888C88.6212 -66.5774 88.3487 -65.0188 88.3487 -62.9128ZM91.4302 -56.699C92.4084 -56.699 93.1701 -57.2047 93.7151 -58.2161C94.2601 -59.2413 94.5326 -60.8069 94.5326 -62.9128C94.5326 -64.7001 94.3579 -66.0856 94.0086 -67.0693L89.3549 -57.7796C89.858 -57.0592 90.5498 -56.699 91.4302 -56.699Z" fill="url(#paint42_linear_122_130)" fill-opacity="0.6"/>
<path d="M92.6879 -33.1142H95.7694V-32.0127H87.7827V-33.1142H91.3463V-44.7937L87.9504 -42.7779L87.3635 -43.7131L91.556 -46.2901H92.6879V-33.1142Z" fill="url(#paint43_linear_122_130)" fill-opacity="0.6"/>
<path d="M92.6879 -9.36311H95.7694V-8.26164H87.7827V-9.36311H91.3463V-21.0427L87.9504 -19.0268L87.3635 -19.962L91.556 -22.539H92.6879V-9.36311Z" fill="url(#paint44_linear_122_130)" fill-opacity="0.6"/>
<path d="M91.4302 1.00423C92.9255 1.00423 94.0575 1.63463 94.8261 2.89542C95.6087 4.14234 96 5.95732 96 8.34035C96 10.7234 95.6087 12.5453 94.8261 13.8061C94.0575 15.0668 92.9255 15.6972 91.4302 15.6972C89.9489 15.6972 88.8169 15.0668 88.0343 13.8061C87.2517 12.5453 86.8604 10.7234 86.8604 8.34035C86.8604 5.97118 87.2517 4.1562 88.0343 2.89542C88.8169 1.63463 89.9489 1.00423 91.4302 1.00423ZM88.3487 8.34035C88.3487 10.0306 88.5024 11.3538 88.8099 12.3097L93.4636 3.10323C92.9744 2.45206 92.2966 2.12647 91.4302 2.12647C90.4659 2.12647 89.7113 2.6391 89.1663 3.66435C88.6212 4.67575 88.3487 6.23441 88.3487 8.34035ZM91.4302 14.5542C92.4084 14.5542 93.1701 14.0485 93.7151 13.0371C94.2601 12.0119 94.5326 10.4463 94.5326 8.34035C94.5326 6.55308 94.3579 5.16759 94.0086 4.18391L89.3549 13.4735C89.858 14.194 90.5498 14.5542 91.4302 14.5542Z" fill="url(#paint45_linear_122_130)" fill-opacity="0.6"/>
<path d="M91.4302 24.7553C92.9255 24.7553 94.0575 25.3857 94.8261 26.6465C95.6087 27.8934 96 29.7084 96 32.0914C96 34.4744 95.6087 36.2963 94.8261 37.5571C94.0575 38.8179 92.9255 39.4483 91.4302 39.4483C89.9489 39.4483 88.8169 38.8179 88.0343 37.5571C87.2517 36.2963 86.8604 34.4744 86.8604 32.0914C86.8604 29.7222 87.2517 27.9073 88.0343 26.6465C88.8169 25.3857 89.9489 24.7553 91.4302 24.7553ZM88.3487 32.0914C88.3487 33.7817 88.5024 35.1048 88.8099 36.0608L93.4636 26.8543C92.9744 26.2031 92.2966 25.8775 91.4302 25.8775C90.4659 25.8775 89.7113 26.3902 89.1663 27.4154C88.6212 28.4268 88.3487 29.9855 88.3487 32.0914ZM91.4302 38.3053C92.4084 38.3053 93.1701 37.7996 93.7151 36.7882C94.2601 35.7629 94.5326 34.1973 94.5326 32.0914C94.5326 30.3041 94.3579 28.9187 94.0086 27.935L89.3549 37.2246C89.858 37.9451 90.5498 38.3053 91.4302 38.3053Z" fill="url(#paint46_linear_122_130)" fill-opacity="0.6"/>
<g opacity="0.6">
<path d="M997.93 -316C999.356 -316 1000.44 -315.395 1001.17 -314.185C1001.92 -312.989 1002.29 -311.247 1002.29 -308.96C1002.29 -306.673 1001.92 -304.925 1001.17 -303.715C1000.44 -302.505 999.356 -301.9 997.93 -301.9C996.517 -301.9 995.437 -302.505 994.69 -303.715C993.943 -304.925 993.57 -306.673 993.57 -308.96C993.57 -311.233 993.943 -312.975 994.69 -314.185C995.437 -315.395 996.517 -316 997.93 -316ZM994.99 -308.96C994.99 -307.338 995.137 -306.068 995.43 -305.151L999.87 -313.986C999.403 -314.611 998.756 -314.923 997.93 -314.923C997.01 -314.923 996.29 -314.431 995.77 -313.447C995.25 -312.477 994.99 -310.981 994.99 -308.96ZM997.93 -302.997C998.863 -302.997 999.59 -303.482 1000.11 -304.453C1000.63 -305.436 1000.89 -306.939 1000.89 -308.96C1000.89 -310.675 1000.72 -312.005 1000.39 -312.949L995.95 -304.034C996.43 -303.342 997.09 -302.997 997.93 -302.997Z" fill="url(#paint47_linear_122_130)"/>
<path d="M999.13 -280.363H1002.07V-279.306H994.45V-280.363H997.85V-291.572L994.61 -289.637L994.05 -290.535L998.05 -293.008H999.13V-280.363Z" fill="url(#paint48_linear_122_130)"/>
<path d="M997.93 -270.414C999.356 -270.414 1000.44 -269.809 1001.17 -268.6C1001.92 -267.403 1002.29 -265.661 1002.29 -263.374C1002.29 -261.087 1001.92 -259.339 1001.17 -258.129C1000.44 -256.919 999.356 -256.314 997.93 -256.314C996.517 -256.314 995.437 -256.919 994.69 -258.129C993.943 -259.339 993.57 -261.087 993.57 -263.374C993.57 -265.648 993.943 -267.39 994.69 -268.6C995.437 -269.809 996.517 -270.414 997.93 -270.414ZM994.99 -263.374C994.99 -261.752 995.137 -260.482 995.43 -259.565L999.87 -268.4C999.403 -269.025 998.756 -269.337 997.93 -269.337C997.01 -269.337 996.29 -268.845 995.77 -267.862C995.25 -266.891 994.99 -265.395 994.99 -263.374ZM997.93 -257.411C998.863 -257.411 999.59 -257.896 1000.11 -258.867C1000.63 -259.851 1000.89 -261.353 1000.89 -263.374C1000.89 -265.089 1000.72 -266.419 1000.39 -267.363L995.95 -258.448C996.43 -257.757 997.09 -257.411 997.93 -257.411Z" fill="url(#paint49_linear_122_130)"/>
<path d="M999.13 -234.778H1002.07V-233.721H994.45V-234.778H997.85V-245.986L994.61 -244.052L994.05 -244.949L998.05 -247.422H999.13V-234.778Z" fill="url(#paint50_linear_122_130)"/>
<path d="M999.13 -211.985H1002.07V-210.928H994.45V-211.985H997.85V-223.193L994.61 -221.259L994.05 -222.156L998.05 -224.629H999.13V-211.985Z" fill="url(#paint51_linear_122_130)"/>
<path d="M997.93 -202.036C999.356 -202.036 1000.44 -201.431 1001.17 -200.221C1001.92 -199.024 1002.29 -197.283 1002.29 -194.996C1002.29 -192.709 1001.92 -190.961 1001.17 -189.751C1000.44 -188.541 999.356 -187.936 997.93 -187.936C996.517 -187.936 995.437 -188.541 994.69 -189.751C993.943 -190.961 993.57 -192.709 993.57 -194.996C993.57 -197.269 993.943 -199.011 994.69 -200.221C995.437 -201.431 996.517 -202.036 997.93 -202.036ZM994.99 -194.996C994.99 -193.374 995.137 -192.104 995.43 -191.187L999.87 -200.022C999.403 -200.647 998.756 -200.959 997.93 -200.959C997.01 -200.959 996.29 -200.467 995.77 -199.483C995.25 -198.513 994.99 -197.017 994.99 -194.996ZM997.93 -189.033C998.863 -189.033 999.59 -189.518 1000.11 -190.489C1000.63 -191.472 1000.89 -192.975 1000.89 -194.996C1000.89 -196.711 1000.72 -198.041 1000.39 -198.985L995.95 -190.07C996.43 -189.378 997.09 -189.033 997.93 -189.033Z" fill="url(#paint52_linear_122_130)"/>
<path d="M999.13 -166.399H1002.07V-165.342H994.45V-166.399H997.85V-177.608L994.61 -175.673L994.05 -176.571L998.05 -179.044H999.13V-166.399Z" fill="url(#paint53_linear_122_130)"/>
<path d="M997.93 -156.45C999.356 -156.45 1000.44 -155.845 1001.17 -154.635C1001.92 -153.439 1002.29 -151.697 1002.29 -149.41C1002.29 -147.123 1001.92 -145.375 1001.17 -144.165C1000.44 -142.955 999.356 -142.35 997.93 -142.35C996.517 -142.35 995.437 -142.955 994.69 -144.165C993.943 -145.375 993.57 -147.123 993.57 -149.41C993.57 -151.684 993.943 -153.426 994.69 -154.635C995.437 -155.845 996.517 -156.45 997.93 -156.45ZM994.99 -149.41C994.99 -147.788 995.137 -146.518 995.43 -145.601L999.87 -154.436C999.403 -155.061 998.756 -155.373 997.93 -155.373C997.01 -155.373 996.29 -154.881 995.77 -153.898C995.25 -152.927 994.99 -151.431 994.99 -149.41ZM997.93 -143.447C998.863 -143.447 999.59 -143.932 1000.11 -144.903C1000.63 -145.887 1000.89 -147.389 1000.89 -149.41C1000.89 -151.125 1000.72 -152.455 1000.39 -153.399L995.95 -144.484C996.43 -143.793 997.09 -143.447 997.93 -143.447Z" fill="url(#paint54_linear_122_130)"/>
<path d="M997.93 -133.658C999.356 -133.658 1000.44 -133.053 1001.17 -131.843C1001.92 -130.646 1002.29 -128.904 1002.29 -126.617C1002.29 -124.331 1001.92 -122.582 1001.17 -121.372C1000.44 -120.162 999.356 -119.557 997.93 -119.557C996.517 -119.557 995.437 -120.162 994.69 -121.372C993.943 -122.582 993.57 -124.331 993.57 -126.617C993.57 -128.891 993.943 -130.633 994.69 -131.843C995.437 -133.053 996.517 -133.658 997.93 -133.658ZM994.99 -126.617C994.99 -124.995 995.137 -123.726 995.43 -122.808L999.87 -131.643C999.403 -132.268 998.756 -132.581 997.93 -132.581C997.01 -132.581 996.29 -132.089 995.77 -131.105C995.25 -130.134 994.99 -128.638 994.99 -126.617ZM997.93 -120.654C998.863 -120.654 999.59 -121.14 1000.11 -122.11C1000.63 -123.094 1000.89 -124.596 1000.89 -126.617C1000.89 -128.333 1000.72 -129.662 1000.39 -130.606L995.95 -121.691C996.43 -121 997.09 -120.654 997.93 -120.654Z" fill="url(#paint55_linear_122_130)"/>
<path d="M999.13 -98.021H1002.07V-96.964H994.45V-98.021H997.85V-109.229L994.61 -107.295L994.05 -108.192L998.05 -110.665H999.13V-98.021Z" fill="url(#paint56_linear_122_130)"/>
<path d="M997.93 -88.072C999.356 -88.072 1000.44 -87.467 1001.17 -86.2571C1001.92 -85.0605 1002.29 -83.3187 1002.29 -81.0318C1002.29 -78.745 1001.92 -76.9966 1001.17 -75.7867C1000.44 -74.5768 999.356 -73.9718 997.93 -73.9718C996.517 -73.9718 995.437 -74.5768 994.69 -75.7867C993.943 -76.9966 993.57 -78.745 993.57 -81.0318C993.57 -83.3054 993.943 -85.0472 994.69 -86.2571C995.437 -87.467 996.517 -88.072 997.93 -88.072ZM994.99 -81.0318C994.99 -79.4098 995.137 -78.14 995.43 -77.2226L999.87 -86.0576C999.403 -86.6826 998.756 -86.995 997.93 -86.995C997.01 -86.995 996.29 -86.5031 995.77 -85.5192C995.25 -84.5486 994.99 -83.0528 994.99 -81.0318ZM997.93 -75.0687C998.863 -75.0687 999.59 -75.554 1000.11 -76.5246C1000.63 -77.5085 1000.89 -79.0109 1000.89 -81.0318C1000.89 -82.747 1000.72 -84.0766 1000.39 -85.0206L995.95 -76.1058C996.43 -75.4144 997.09 -75.0687 997.93 -75.0687Z" fill="url(#paint57_linear_122_130)"/>
<path d="M999.13 -52.4354H1002.07V-51.3784H994.45V-52.4354H997.85V-63.6438L994.61 -61.7092L994.05 -62.6067L998.05 -65.0797H999.13V-52.4354Z" fill="url(#paint58_linear_122_130)"/>
<path d="M999.13 -29.6426H1002.07V-28.5856H994.45V-29.6426H997.85V-40.851L994.61 -38.9164L994.05 -39.8139L998.05 -42.2869H999.13V-29.6426Z" fill="url(#paint59_linear_122_130)"/>
<path d="M1035.07 -270.414C1036.5 -270.414 1037.58 -269.809 1038.31 -268.6C1039.06 -267.403 1039.43 -265.661 1039.43 -263.374C1039.43 -261.087 1039.06 -259.339 1038.31 -258.129C1037.58 -256.919 1036.5 -256.314 1035.07 -256.314C1033.66 -256.314 1032.58 -256.919 1031.83 -258.129C1031.08 -259.339 1030.71 -261.087 1030.71 -263.374C1030.71 -265.648 1031.08 -267.39 1031.83 -268.6C1032.58 -269.809 1033.66 -270.414 1035.07 -270.414ZM1032.13 -263.374C1032.13 -261.752 1032.28 -260.482 1032.57 -259.565L1037.01 -268.4C1036.54 -269.025 1035.9 -269.337 1035.07 -269.337C1034.15 -269.337 1033.43 -268.845 1032.91 -267.862C1032.39 -266.891 1032.13 -265.395 1032.13 -263.374ZM1035.07 -257.411C1036 -257.411 1036.73 -257.896 1037.25 -258.867C1037.77 -259.851 1038.03 -261.353 1038.03 -263.374C1038.03 -265.089 1037.86 -266.419 1037.53 -267.363L1033.09 -258.448C1033.57 -257.757 1034.23 -257.411 1035.07 -257.411Z" fill="url(#paint60_linear_122_130)"/>
<path d="M1036.27 -234.778H1039.21V-233.721H1031.59V-234.778H1034.99V-245.986L1031.75 -244.052L1031.19 -244.949L1035.19 -247.422H1036.27V-234.778Z" fill="url(#paint61_linear_122_130)"/>
<path d="M1035.07 -224.829C1036.5 -224.829 1037.58 -224.224 1038.31 -223.014C1039.06 -221.817 1039.43 -220.076 1039.43 -217.789C1039.43 -215.502 1039.06 -213.753 1038.31 -212.543C1037.58 -211.334 1036.5 -210.729 1035.07 -210.729C1033.66 -210.729 1032.58 -211.334 1031.83 -212.543C1031.08 -213.753 1030.71 -215.502 1030.71 -217.789C1030.71 -220.062 1031.08 -221.804 1031.83 -223.014C1032.58 -224.224 1033.66 -224.829 1035.07 -224.829ZM1032.13 -217.789C1032.13 -216.167 1032.28 -214.897 1032.57 -213.979L1037.01 -222.814C1036.54 -223.439 1035.9 -223.752 1035.07 -223.752C1034.15 -223.752 1033.43 -223.26 1032.91 -222.276C1032.39 -221.305 1032.13 -219.81 1032.13 -217.789ZM1035.07 -211.826C1036 -211.826 1036.73 -212.311 1037.25 -213.281C1037.77 -214.265 1038.03 -215.768 1038.03 -217.789C1038.03 -219.504 1037.86 -220.833 1037.53 -221.777L1033.09 -212.863C1033.57 -212.171 1034.23 -211.826 1035.07 -211.826Z" fill="url(#paint62_linear_122_130)"/>
<path d="M1035.07 -202.036C1036.5 -202.036 1037.58 -201.431 1038.31 -200.221C1039.06 -199.024 1039.43 -197.283 1039.43 -194.996C1039.43 -192.709 1039.06 -190.961 1038.31 -189.751C1037.58 -188.541 1036.5 -187.936 1035.07 -187.936C1033.66 -187.936 1032.58 -188.541 1031.83 -189.751C1031.08 -190.961 1030.71 -192.709 1030.71 -194.996C1030.71 -197.269 1031.08 -199.011 1031.83 -200.221C1032.58 -201.431 1033.66 -202.036 1035.07 -202.036ZM1032.13 -194.996C1032.13 -193.374 1032.28 -192.104 1032.57 -191.187L1037.01 -200.022C1036.54 -200.647 1035.9 -200.959 1035.07 -200.959C1034.15 -200.959 1033.43 -200.467 1032.91 -199.483C1032.39 -198.513 1032.13 -197.017 1032.13 -194.996ZM1035.07 -189.033C1036 -189.033 1036.73 -189.518 1037.25 -190.489C1037.77 -191.472 1038.03 -192.975 1038.03 -194.996C1038.03 -196.711 1037.86 -198.041 1037.53 -198.985L1033.09 -190.07C1033.57 -189.378 1034.23 -189.033 1035.07 -189.033Z" fill="url(#paint63_linear_122_130)"/>
<path d="M1036.27 -166.399H1039.21V-165.342H1031.59V-166.399H1034.99V-177.608L1031.75 -175.673L1031.19 -176.571L1035.19 -179.044H1036.27V-166.399Z" fill="url(#paint64_linear_122_130)"/>
<path d="M1035.07 -156.45C1036.5 -156.45 1037.58 -155.845 1038.31 -154.635C1039.06 -153.439 1039.43 -151.697 1039.43 -149.41C1039.43 -147.123 1039.06 -145.375 1038.31 -144.165C1037.58 -142.955 1036.5 -142.35 1035.07 -142.35C1033.66 -142.35 1032.58 -142.955 1031.83 -144.165C1031.08 -145.375 1030.71 -147.123 1030.71 -149.41C1030.71 -151.684 1031.08 -153.426 1031.83 -154.635C1032.58 -155.845 1033.66 -156.45 1035.07 -156.45ZM1032.13 -149.41C1032.13 -147.788 1032.28 -146.518 1032.57 -145.601L1037.01 -154.436C1036.54 -155.061 1035.9 -155.373 1035.07 -155.373C1034.15 -155.373 1033.43 -154.881 1032.91 -153.898C1032.39 -152.927 1032.13 -151.431 1032.13 -149.41ZM1035.07 -143.447C1036 -143.447 1036.73 -143.932 1037.25 -144.903C1037.77 -145.887 1038.03 -147.389 1038.03 -149.41C1038.03 -151.125 1037.86 -152.455 1037.53 -153.399L1033.09 -144.484C1033.57 -143.793 1034.23 -143.447 1035.07 -143.447Z" fill="url(#paint65_linear_122_130)"/>
<path d="M1036.27 -120.814H1039.21V-119.757H1031.59V-120.814H1034.99V-132.022L1031.75 -130.088L1031.19 -130.985L1035.19 -133.458H1036.27V-120.814Z" fill="url(#paint66_linear_122_130)"/>
<path d="M1035.07 -110.865C1036.5 -110.865 1037.58 -110.26 1038.31 -109.05C1039.06 -107.853 1039.43 -106.112 1039.43 -103.825C1039.43 -101.538 1039.06 -99.7894 1038.31 -98.5795C1037.58 -97.3696 1036.5 -96.7646 1035.07 -96.7646C1033.66 -96.7646 1032.58 -97.3696 1031.83 -98.5795C1031.08 -99.7894 1030.71 -101.538 1030.71 -103.825C1030.71 -106.098 1031.08 -107.84 1031.83 -109.05C1032.58 -110.26 1033.66 -110.865 1035.07 -110.865ZM1032.13 -103.825C1032.13 -102.203 1032.28 -100.933 1032.57 -100.015L1037.01 -108.85C1036.54 -109.475 1035.9 -109.788 1035.07 -109.788C1034.15 -109.788 1033.43 -109.296 1032.91 -108.312C1032.39 -107.341 1032.13 -105.846 1032.13 -103.825ZM1035.07 -97.8615C1036 -97.8615 1036.73 -98.3468 1037.25 -99.3174C1037.77 -100.301 1038.03 -101.804 1038.03 -103.825C1038.03 -105.54 1037.86 -106.869 1037.53 -107.813L1033.09 -98.8986C1033.57 -98.2072 1034.23 -97.8615 1035.07 -97.8615Z" fill="url(#paint67_linear_122_130)"/>
<path d="M1035.07 -88.072C1036.5 -88.072 1037.58 -87.467 1038.31 -86.2571C1039.06 -85.0605 1039.43 -83.3187 1039.43 -81.0318C1039.43 -78.745 1039.06 -76.9966 1038.31 -75.7867C1037.58 -74.5768 1036.5 -73.9718 1035.07 -73.9718C1033.66 -73.9718 1032.58 -74.5768 1031.83 -75.7867C1031.08 -76.9966 1030.71 -78.745 1030.71 -81.0318C1030.71 -83.3054 1031.08 -85.0472 1031.83 -86.2571C1032.58 -87.467 1033.66 -88.072 1035.07 -88.072ZM1032.13 -81.0318C1032.13 -79.4098 1032.28 -78.14 1032.57 -77.2226L1037.01 -86.0576C1036.54 -86.6826 1035.9 -86.995 1035.07 -86.995C1034.15 -86.995 1033.43 -86.5031 1032.91 -85.5192C1032.39 -84.5486 1032.13 -83.0528 1032.13 -81.0318ZM1035.07 -75.0687C1036 -75.0687 1036.73 -75.554 1037.25 -76.5246C1037.77 -77.5085 1038.03 -79.0109 1038.03 -81.0318C1038.03 -82.747 1037.86 -84.0766 1037.53 -85.0206L1033.09 -76.1058C1033.57 -75.4144 1034.23 -75.0687 1035.07 -75.0687Z" fill="url(#paint68_linear_122_130)"/>
<path d="M1036.27 -52.4354H1039.21V-51.3784H1031.59V-52.4354H1034.99V-63.6438L1031.75 -61.7092L1031.19 -62.6067L1035.19 -65.0797H1036.27V-52.4354Z" fill="url(#paint69_linear_122_130)"/>
<path d="M1035.07 -42.4864C1036.5 -42.4864 1037.58 -41.8814 1038.31 -40.6715C1039.06 -39.4749 1039.43 -37.7331 1039.43 -35.4462C1039.43 -33.1594 1039.06 -31.411 1038.31 -30.201C1037.58 -28.9911 1036.5 -28.3862 1035.07 -28.3862C1033.66 -28.3862 1032.58 -28.9911 1031.83 -30.201C1031.08 -31.411 1030.71 -33.1594 1030.71 -35.4462C1030.71 -37.7198 1031.08 -39.4616 1031.83 -40.6715C1032.58 -41.8814 1033.66 -42.4864 1035.07 -42.4864ZM1032.13 -35.4462C1032.13 -33.8242 1032.28 -32.5544 1032.57 -31.637L1037.01 -40.472C1036.54 -41.097 1035.9 -41.4094 1035.07 -41.4094C1034.15 -41.4094 1033.43 -40.9174 1032.91 -39.9336C1032.39 -38.963 1032.13 -37.4672 1032.13 -35.4462ZM1035.07 -29.4831C1036 -29.4831 1036.73 -29.9684 1037.25 -30.939C1037.77 -31.9229 1038.03 -33.4253 1038.03 -35.4462C1038.03 -37.1614 1037.86 -38.491 1037.53 -39.435L1033.09 -30.5201C1033.57 -29.8288 1034.23 -29.4831 1035.07 -29.4831Z" fill="url(#paint70_linear_122_130)"/>
<path d="M1036.27 -6.84979H1039.21V-5.79282H1031.59V-6.84979H1034.99V-18.0582L1031.75 -16.1237L1031.19 -17.0211L1035.19 -19.4941H1036.27V-6.84979Z" fill="url(#paint71_linear_122_130)"/>
<path d="M1036.27 15.943H1039.21V17H1031.59V15.943H1034.99V4.73462L1031.75 6.66916L1031.19 5.7717L1035.19 3.29865H1036.27V15.943Z" fill="url(#paint72_linear_122_130)"/>
<path d="M979.36 -247.622C980.786 -247.622 981.866 -247.017 982.599 -245.807C983.346 -244.61 983.719 -242.868 983.719 -240.581C983.719 -238.295 983.346 -236.546 982.599 -235.336C981.866 -234.126 980.786 -233.521 979.36 -233.521C977.946 -233.521 976.867 -234.126 976.12 -235.336C975.373 -236.546 975 -238.295 975 -240.581C975 -242.855 975.373 -244.597 976.12 -245.807C976.867 -247.017 977.946 -247.622 979.36 -247.622ZM976.42 -240.581C976.42 -238.959 976.567 -237.69 976.86 -236.772L981.3 -245.607C980.833 -246.232 980.186 -246.545 979.36 -246.545C978.44 -246.545 977.72 -246.053 977.2 -245.069C976.68 -244.098 976.42 -242.602 976.42 -240.581ZM979.36 -234.618C980.293 -234.618 981.02 -235.104 981.54 -236.074C982.06 -237.058 982.319 -238.561 982.319 -240.581C982.319 -242.297 982.153 -243.626 981.82 -244.57L977.38 -235.655C977.86 -234.964 978.52 -234.618 979.36 -234.618Z" fill="url(#paint73_linear_122_130)"/>
<path d="M979.36 -224.829C980.786 -224.829 981.866 -224.224 982.599 -223.014C983.346 -221.817 983.719 -220.076 983.719 -217.789C983.719 -215.502 983.346 -213.753 982.599 -212.543C981.866 -211.334 980.786 -210.729 979.36 -210.729C977.946 -210.729 976.867 -211.334 976.12 -212.543C975.373 -213.753 975 -215.502 975 -217.789C975 -220.062 975.373 -221.804 976.12 -223.014C976.867 -224.224 977.946 -224.829 979.36 -224.829ZM976.42 -217.789C976.42 -216.167 976.567 -214.897 976.86 -213.979L981.3 -222.814C980.833 -223.439 980.186 -223.752 979.36 -223.752C978.44 -223.752 977.72 -223.26 977.2 -222.276C976.68 -221.305 976.42 -219.81 976.42 -217.789ZM979.36 -211.826C980.293 -211.826 981.02 -212.311 981.54 -213.281C982.06 -214.265 982.319 -215.768 982.319 -217.789C982.319 -219.504 982.153 -220.833 981.82 -221.777L977.38 -212.863C977.86 -212.171 978.52 -211.826 979.36 -211.826Z" fill="url(#paint74_linear_122_130)"/>
<path d="M980.56 -189.192H983.499V-188.135H975.88V-189.192H979.28V-200.401L976.04 -198.466L975.48 -199.364L979.48 -201.837H980.56V-189.192Z" fill="url(#paint75_linear_122_130)"/>
<path d="M979.36 -179.243C980.786 -179.243 981.866 -178.638 982.599 -177.428C983.346 -176.232 983.719 -174.49 983.719 -172.203C983.719 -169.916 983.346 -168.168 982.599 -166.958C981.866 -165.748 980.786 -165.143 979.36 -165.143C977.946 -165.143 976.867 -165.748 976.12 -166.958C975.373 -168.168 975 -169.916 975 -172.203C975 -174.477 975.373 -176.218 976.12 -177.428C976.867 -178.638 977.946 -179.243 979.36 -179.243ZM976.42 -172.203C976.42 -170.581 976.567 -169.311 976.86 -168.394L981.3 -177.229C980.833 -177.854 980.186 -178.166 979.36 -178.166C978.44 -178.166 977.72 -177.674 977.2 -176.69C976.68 -175.72 976.42 -174.224 976.42 -172.203ZM979.36 -166.24C980.293 -166.24 981.02 -166.725 981.54 -167.696C982.06 -168.68 982.319 -170.182 982.319 -172.203C982.319 -173.918 982.153 -175.248 981.82 -176.192L977.38 -167.277C977.86 -166.586 978.52 -166.24 979.36 -166.24Z" fill="url(#paint76_linear_122_130)"/>
<path d="M980.56 -143.607H983.499V-142.55H975.88V-143.607H979.28V-154.815L976.04 -152.88L975.48 -153.778L979.48 -156.251H980.56V-143.607Z" fill="url(#paint77_linear_122_130)"/>
<path d="M980.56 -120.814H983.499V-119.757H975.88V-120.814H979.28V-132.022L976.04 -130.088L975.48 -130.985L979.48 -133.458H980.56V-120.814Z" fill="url(#paint78_linear_122_130)"/>
<path d="M1017.7 -280.363H1020.64V-279.306H1013.02V-280.363H1016.42V-291.572L1013.18 -289.637L1012.62 -290.535L1016.62 -293.008H1017.7V-280.363Z" fill="url(#paint79_linear_122_130)"/>
<path d="M1016.5 -270.414C1017.93 -270.414 1019.01 -269.809 1019.74 -268.6C1020.49 -267.403 1020.86 -265.661 1020.86 -263.374C1020.86 -261.087 1020.49 -259.339 1019.74 -258.129C1019.01 -256.919 1017.93 -256.314 1016.5 -256.314C1015.09 -256.314 1014.01 -256.919 1013.26 -258.129C1012.51 -259.339 1012.14 -261.087 1012.14 -263.374C1012.14 -265.648 1012.51 -267.39 1013.26 -268.6C1014.01 -269.809 1015.09 -270.414 1016.5 -270.414ZM1013.56 -263.374C1013.56 -261.752 1013.71 -260.482 1014 -259.565L1018.44 -268.4C1017.97 -269.025 1017.33 -269.337 1016.5 -269.337C1015.58 -269.337 1014.86 -268.845 1014.34 -267.862C1013.82 -266.891 1013.56 -265.395 1013.56 -263.374ZM1016.5 -257.411C1017.43 -257.411 1018.16 -257.896 1018.68 -258.867C1019.2 -259.851 1019.46 -261.353 1019.46 -263.374C1019.46 -265.089 1019.29 -266.419 1018.96 -267.363L1014.52 -258.448C1015 -257.757 1015.66 -257.411 1016.5 -257.411Z" fill="url(#paint80_linear_122_130)"/>
<path d="M1017.7 -234.778H1020.64V-233.721H1013.02V-234.778H1016.42V-245.986L1013.18 -244.052L1012.62 -244.949L1016.62 -247.422H1017.7V-234.778Z" fill="url(#paint81_linear_122_130)"/>
<path d="M1017.7 -211.985H1020.64V-210.928H1013.02V-211.985H1016.42V-223.193L1013.18 -221.259L1012.62 -222.156L1016.62 -224.629H1017.7V-211.985Z" fill="url(#paint82_linear_122_130)"/>
<path d="M1016.5 -202.036C1017.93 -202.036 1019.01 -201.431 1019.74 -200.221C1020.49 -199.024 1020.86 -197.283 1020.86 -194.996C1020.86 -192.709 1020.49 -190.961 1019.74 -189.751C1019.01 -188.541 1017.93 -187.936 1016.5 -187.936C1015.09 -187.936 1014.01 -188.541 1013.26 -189.751C1012.51 -190.961 1012.14 -192.709 1012.14 -194.996C1012.14 -197.269 1012.51 -199.011 1013.26 -200.221C1014.01 -201.431 1015.09 -202.036 1016.5 -202.036ZM1013.56 -194.996C1013.56 -193.374 1013.71 -192.104 1014 -191.187L1018.44 -200.022C1017.97 -200.647 1017.33 -200.959 1016.5 -200.959C1015.58 -200.959 1014.86 -200.467 1014.34 -199.483C1013.82 -198.513 1013.56 -197.017 1013.56 -194.996ZM1016.5 -189.033C1017.43 -189.033 1018.16 -189.518 1018.68 -190.489C1019.2 -191.472 1019.46 -192.975 1019.46 -194.996C1019.46 -196.711 1019.29 -198.041 1018.96 -198.985L1014.52 -190.07C1015 -189.378 1015.66 -189.033 1016.5 -189.033Z" fill="url(#paint83_linear_122_130)"/>
<path d="M1017.7 -166.399H1020.64V-165.342H1013.02V-166.399H1016.42V-177.608L1013.18 -175.673L1012.62 -176.571L1016.62 -179.044H1017.7V-166.399Z" fill="url(#paint84_linear_122_130)"/>
<path d="M1017.7 -143.607H1020.64V-142.55H1013.02V-143.607H1016.42V-154.815L1013.18 -152.88L1012.62 -153.778L1016.62 -156.251H1017.7V-143.607Z" fill="url(#paint85_linear_122_130)"/>
<path d="M1016.5 -133.658C1017.93 -133.658 1019.01 -133.053 1019.74 -131.843C1020.49 -130.646 1020.86 -128.904 1020.86 -126.617C1020.86 -124.331 1020.49 -122.582 1019.74 -121.372C1019.01 -120.162 1017.93 -119.557 1016.5 -119.557C1015.09 -119.557 1014.01 -120.162 1013.26 -121.372C1012.51 -122.582 1012.14 -124.331 1012.14 -126.617C1012.14 -128.891 1012.51 -130.633 1013.26 -131.843C1014.01 -133.053 1015.09 -133.658 1016.5 -133.658ZM1013.56 -126.617C1013.56 -124.995 1013.71 -123.726 1014 -122.808L1018.44 -131.643C1017.97 -132.268 1017.33 -132.581 1016.5 -132.581C1015.58 -132.581 1014.86 -132.089 1014.34 -131.105C1013.82 -130.134 1013.56 -128.638 1013.56 -126.617ZM1016.5 -120.654C1017.43 -120.654 1018.16 -121.14 1018.68 -122.11C1019.2 -123.094 1019.46 -124.596 1019.46 -126.617C1019.46 -128.333 1019.29 -129.662 1018.96 -130.606L1014.52 -121.691C1015 -121 1015.66 -120.654 1016.5 -120.654Z" fill="url(#paint86_linear_122_130)"/>
<path d="M1017.7 -98.021H1020.64V-96.964H1013.02V-98.021H1016.42V-109.229L1013.18 -107.295L1012.62 -108.192L1016.62 -110.665H1017.7V-98.021Z" fill="url(#paint87_linear_122_130)"/>
<path d="M1016.5 -88.072C1017.93 -88.072 1019.01 -87.467 1019.74 -86.2571C1020.49 -85.0605 1020.86 -83.3187 1020.86 -81.0318C1020.86 -78.745 1020.49 -76.9966 1019.74 -75.7867C1019.01 -74.5768 1017.93 -73.9718 1016.5 -73.9718C1015.09 -73.9718 1014.01 -74.5768 1013.26 -75.7867C1012.51 -76.9966 1012.14 -78.745 1012.14 -81.0318C1012.14 -83.3054 1012.51 -85.0472 1013.26 -86.2571C1014.01 -87.467 1015.09 -88.072 1016.5 -88.072ZM1013.56 -81.0318C1013.56 -79.4098 1013.71 -78.14 1014 -77.2226L1018.44 -86.0576C1017.97 -86.6826 1017.33 -86.995 1016.5 -86.995C1015.58 -86.995 1014.86 -86.5031 1014.34 -85.5192C1013.82 -84.5486 1013.56 -83.0528 1013.56 -81.0318ZM1016.5 -75.0687C1017.43 -75.0687 1018.16 -75.554 1018.68 -76.5246C1019.2 -77.5085 1019.46 -79.0109 1019.46 -81.0318C1019.46 -82.747 1019.29 -84.0766 1018.96 -85.0206L1014.52 -76.1058C1015 -75.4144 1015.66 -75.0687 1016.5 -75.0687Z" fill="url(#paint88_linear_122_130)"/>
<path d="M1053.64 -293.207C1055.07 -293.207 1056.15 -292.602 1056.88 -291.392C1057.63 -290.196 1058 -288.454 1058 -286.167C1058 -283.88 1057.63 -282.132 1056.88 -280.922C1056.15 -279.712 1055.07 -279.107 1053.64 -279.107C1052.23 -279.107 1051.15 -279.712 1050.4 -280.922C1049.65 -282.132 1049.28 -283.88 1049.28 -286.167C1049.28 -288.441 1049.65 -290.182 1050.4 -291.392C1051.15 -292.602 1052.23 -293.207 1053.64 -293.207ZM1050.7 -286.167C1050.7 -284.545 1050.85 -283.275 1051.14 -282.358L1055.58 -291.193C1055.11 -291.818 1054.47 -292.13 1053.64 -292.13C1052.72 -292.13 1052 -291.638 1051.48 -290.654C1050.96 -289.684 1050.7 -288.188 1050.7 -286.167ZM1053.64 -280.204C1054.57 -280.204 1055.3 -280.689 1055.82 -281.66C1056.34 -282.644 1056.6 -284.146 1056.6 -286.167C1056.6 -287.882 1056.43 -289.212 1056.1 -290.156L1051.66 -281.241C1052.14 -280.55 1052.8 -280.204 1053.64 -280.204Z" fill="url(#paint89_linear_122_130)"/>
<path d="M1054.84 -257.571H1057.78V-256.514H1050.16V-257.571H1053.56V-268.779L1050.32 -266.844L1049.76 -267.742L1053.76 -270.215H1054.84V-257.571Z" fill="url(#paint90_linear_122_130)"/>
<path d="M1054.84 -234.778H1057.78V-233.721H1050.16V-234.778H1053.56V-245.986L1050.32 -244.052L1049.76 -244.949L1053.76 -247.422H1054.84V-234.778Z" fill="url(#paint91_linear_122_130)"/>
<path d="M1053.64 -224.829C1055.07 -224.829 1056.15 -224.224 1056.88 -223.014C1057.63 -221.817 1058 -220.076 1058 -217.789C1058 -215.502 1057.63 -213.753 1056.88 -212.543C1056.15 -211.334 1055.07 -210.729 1053.64 -210.729C1052.23 -210.729 1051.15 -211.334 1050.4 -212.543C1049.65 -213.753 1049.28 -215.502 1049.28 -217.789C1049.28 -220.062 1049.65 -221.804 1050.4 -223.014C1051.15 -224.224 1052.23 -224.829 1053.64 -224.829ZM1050.7 -217.789C1050.7 -216.167 1050.85 -214.897 1051.14 -213.979L1055.58 -222.814C1055.11 -223.439 1054.47 -223.752 1053.64 -223.752C1052.72 -223.752 1052 -223.26 1051.48 -222.276C1050.96 -221.305 1050.7 -219.81 1050.7 -217.789ZM1053.64 -211.826C1054.57 -211.826 1055.3 -212.311 1055.82 -213.281C1056.34 -214.265 1056.6 -215.768 1056.6 -217.789C1056.6 -219.504 1056.43 -220.833 1056.1 -221.777L1051.66 -212.863C1052.14 -212.171 1052.8 -211.826 1053.64 -211.826Z" fill="url(#paint92_linear_122_130)"/>
<path d="M1053.64 -202.036C1055.07 -202.036 1056.15 -201.431 1056.88 -200.221C1057.63 -199.024 1058 -197.283 1058 -194.996C1058 -192.709 1057.63 -190.961 1056.88 -189.751C1056.15 -188.541 1055.07 -187.936 1053.64 -187.936C1052.23 -187.936 1051.15 -188.541 1050.4 -189.751C1049.65 -190.961 1049.28 -192.709 1049.28 -194.996C1049.28 -197.269 1049.65 -199.011 1050.4 -200.221C1051.15 -201.431 1052.23 -202.036 1053.64 -202.036ZM1050.7 -194.996C1050.7 -193.374 1050.85 -192.104 1051.14 -191.187L1055.58 -200.022C1055.11 -200.647 1054.47 -200.959 1053.64 -200.959C1052.72 -200.959 1052 -200.467 1051.48 -199.483C1050.96 -198.513 1050.7 -197.017 1050.7 -194.996ZM1053.64 -189.033C1054.57 -189.033 1055.3 -189.518 1055.82 -190.489C1056.34 -191.472 1056.6 -192.975 1056.6 -194.996C1056.6 -196.711 1056.43 -198.041 1056.1 -198.985L1051.66 -190.07C1052.14 -189.378 1052.8 -189.033 1053.64 -189.033Z" fill="url(#paint93_linear_122_130)"/>
</g>
</g>
<defs>
<filter id="filter0_f_122_130" x="-558.19" y="-844.19" width="2141.38" height="1500.38" filterUnits="userSpaceOnUse" color-interpolation-filters="sRGB">
<feFlood flood-opacity="0" result="BackgroundImageFix"/>
<feBlend mode="normal" in="SourceGraphic" in2="BackgroundImageFix" result="shape"/>
<feGaussianBlur stdDeviation="200.095" result="effect1_foregroundBlur_122_130"/>
</filter>
<linearGradient id="paint0_linear_122_130" x1="52.5" y1="-94" x2="52.5" y2="217.381" gradientUnits="userSpaceOnUse">
<stop stop-color="#F7DD43"/>
<stop offset="1" stop-color="#F7DD43" stop-opacity="0"/>
</linearGradient>
<linearGradient id="paint1_linear_122_130" x1="52.5" y1="-94" x2="52.5" y2="217.381" gradientUnits="userSpaceOnUse">
<stop stop-color="#F7DD43"/>
<stop offset="1" stop-color="#F7DD43" stop-opacity="0"/>
</linearGradient>
<linearGradient id="paint2_linear_122_130" x1="52.5" y1="-94" x2="52.5" y2="217.381" gradientUnits="userSpaceOnUse">
<stop stop-color="#F7DD43"/>
<stop offset="1" stop-color="#F7DD43" stop-opacity="0"/>
</linearGradient>
<linearGradient id="paint3_linear_122_130" x1="52.5" y1="-94" x2="52.5" y2="217.381" gradientUnits="userSpaceOnUse">
<stop stop-color="#F7DD43"/>
<stop offset="1" stop-color="#F7DD43" stop-opacity="0"/>
</linearGradient>
<linearGradient id="paint4_linear_122_130" x1="52.5" y1="-94" x2="52.5" y2="217.381" gradientUnits="userSpaceOnUse">
<stop stop-color="#F7DD43"/>
<stop offset="1" stop-color="#F7DD43" stop-opacity="0"/>
</linearGradient>
<linearGradient id="paint5_linear_122_130" x1="52.5" y1="-94" x2="52.5" y2="217.381" gradientUnits="userSpaceOnUse">
<stop stop-color="#F7DD43"/>
<stop offset="1" stop-color="#F7DD43" stop-opacity="0"/>
</linearGradient>
<linearGradient id="paint6_linear_122_130" x1="52.5" y1="-94" x2="52.5" y2="217.381" gradientUnits="userSpaceOnUse">
<stop stop-color="#F7DD43"/>
<stop offset="1" stop-color="#F7DD43" stop-opacity="0"/>
</linearGradient>
<linearGradient id="paint7_linear_122_130" x1="52.5" y1="-94" x2="52.5" y2="217.381" gradientUnits="userSpaceOnUse">
<stop stop-color="#F7DD43"/>
<stop offset="1" stop-color="#F7DD43" stop-opacity="0"/>
</linearGradient>
<linearGradient id="paint8_linear_122_130" x1="52.5" y1="-94" x2="52.5" y2="217.381" gradientUnits="userSpaceOnUse">
<stop stop-color="#F7DD43"/>
<stop offset="1" stop-color="#F7DD43" stop-opacity="0"/>
</linearGradient>
<linearGradient id="paint9_linear_122_130" x1="52.5" y1="-94" x2="52.5" y2="217.381" gradientUnits="userSpaceOnUse">
<stop stop-color="#F7DD43"/>
<stop offset="1" stop-color="#F7DD43" stop-opacity="0"/>
</linearGradient>
<linearGradient id="paint10_linear_122_130" x1="52.5" y1="-94" x2="52.5" y2="217.381" gradientUnits="userSpaceOnUse">
<stop stop-color="#F7DD43"/>
<stop offset="1" stop-color="#F7DD43" stop-opacity="0"/>
</linearGradient>
<linearGradient id="paint11_linear_122_130" x1="52.5" y1="-94" x2="52.5" y2="217.381" gradientUnits="userSpaceOnUse">
<stop stop-color="#F7DD43"/>
<stop offset="1" stop-color="#F7DD43" stop-opacity="0"/>
</linearGradient>
<linearGradient id="paint12_linear_122_130" x1="52.5" y1="-94" x2="52.5" y2="217.381" gradientUnits="userSpaceOnUse">
<stop stop-color="#F7DD43"/>
<stop offset="1" stop-color="#F7DD43" stop-opacity="0"/>
</linearGradient>
<linearGradient id="paint13_linear_122_130" x1="52.5" y1="-94" x2="52.5" y2="217.381" gradientUnits="userSpaceOnUse">
<stop stop-color="#F7DD43"/>
<stop offset="1" stop-color="#F7DD43" stop-opacity="0"/>
</linearGradient>
<linearGradient id="paint14_linear_122_130" x1="52.5" y1="-94" x2="52.5" y2="217.381" gradientUnits="userSpaceOnUse">
<stop stop-color="#F7DD43"/>
<stop offset="1" stop-color="#F7DD43" stop-opacity="0"/>
</linearGradient>
<linearGradient id="paint15_linear_122_130" x1="52.5" y1="-94" x2="52.5" y2="217.381" gradientUnits="userSpaceOnUse">
<stop stop-color="#F7DD43"/>
<stop offset="1" stop-color="#F7DD43" stop-opacity="0"/>
</linearGradient>
<linearGradient id="paint16_linear_122_130" x1="52.5" y1="-94" x2="52.5" y2="217.381" gradientUnits="userSpaceOnUse">
<stop stop-color="#F7DD43"/>
<stop offset="1" stop-color="#F7DD43" stop-opacity="0"/>
</linearGradient>
<linearGradient id="paint17_linear_122_130" x1="52.5" y1="-94" x2="52.5" y2="217.381" gradientUnits="userSpaceOnUse">
<stop stop-color="#F7DD43"/>
<stop offset="1" stop-color="#F7DD43" stop-opacity="0"/>
</linearGradient>
<linearGradient id="paint18_linear_122_130" x1="52.5" y1="-94" x2="52.5" y2="217.381" gradientUnits="userSpaceOnUse">
<stop stop-color="#F7DD43"/>
<stop offset="1" stop-color="#F7DD43" stop-opacity="0"/>
</linearGradient>
<linearGradient id="paint19_linear_122_130" x1="52.5" y1="-94" x2="52.5" y2="217.381" gradientUnits="userSpaceOnUse">
<stop stop-color="#F7DD43"/>
<stop offset="1" stop-color="#F7DD43" stop-opacity="0"/>
</linearGradient>
<linearGradient id="paint20_linear_122_130" x1="52.5" y1="-94" x2="52.5" y2="217.381" gradientUnits="userSpaceOnUse">
<stop stop-color="#F7DD43"/>
<stop offset="1" stop-color="#F7DD43" stop-opacity="0"/>
</linearGradient>
<linearGradient id="paint21_linear_122_130" x1="52.5" y1="-94" x2="52.5" y2="217.381" gradientUnits="userSpaceOnUse">
<stop stop-color="#F7DD43"/>
<stop offset="1" stop-color="#F7DD43" stop-opacity="0"/>
</linearGradient>
<linearGradient id="paint22_linear_122_130" x1="52.5" y1="-94" x2="52.5" y2="217.381" gradientUnits="userSpaceOnUse">
<stop stop-color="#F7DD43"/>
<stop offset="1" stop-color="#F7DD43" stop-opacity="0"/>
</linearGradient>
<linearGradient id="paint23_linear_122_130" x1="52.5" y1="-94" x2="52.5" y2="217.381" gradientUnits="userSpaceOnUse">
<stop stop-color="#F7DD43"/>
<stop offset="1" stop-color="#F7DD43" stop-opacity="0"/>
</linearGradient>
<linearGradient id="paint24_linear_122_130" x1="52.5" y1="-94" x2="52.5" y2="217.381" gradientUnits="userSpaceOnUse">
<stop stop-color="#F7DD43"/>
<stop offset="1" stop-color="#F7DD43" stop-opacity="0"/>
</linearGradient>
<linearGradient id="paint25_linear_122_130" x1="52.5" y1="-94" x2="52.5" y2="217.381" gradientUnits="userSpaceOnUse">
<stop stop-color="#F7DD43"/>
<stop offset="1" stop-color="#F7DD43" stop-opacity="0"/>
</linearGradient>
<linearGradient id="paint26_linear_122_130" x1="52.5" y1="-94" x2="52.5" y2="217.381" gradientUnits="userSpaceOnUse">
<stop stop-color="#F7DD43"/>
<stop offset="1" stop-color="#F7DD43" stop-opacity="0"/>
</linearGradient>
<linearGradient id="paint27_linear_122_130" x1="52.5" y1="-94" x2="52.5" y2="217.381" gradientUnits="userSpaceOnUse">
<stop stop-color="#F7DD43"/>
<stop offset="1" stop-color="#F7DD43" stop-opacity="0"/>
</linearGradient>
<linearGradient id="paint28_linear_122_130" x1="52.5" y1="-94" x2="52.5" y2="217.381" gradientUnits="userSpaceOnUse">
<stop stop-color="#F7DD43"/>
<stop offset="1" stop-color="#F7DD43" stop-opacity="0"/>
</linearGradient>
<linearGradient id="paint29_linear_122_130" x1="52.5" y1="-94" x2="52.5" y2="217.381" gradientUnits="userSpaceOnUse">
<stop stop-color="#F7DD43"/>
<stop offset="1" stop-color="#F7DD43" stop-opacity="0"/>
</linearGradient>
<linearGradient id="paint30_linear_122_130" x1="52.5" y1="-94" x2="52.5" y2="217.381" gradientUnits="userSpaceOnUse">
<stop stop-color="#F7DD43"/>
<stop offset="1" stop-color="#F7DD43" stop-opacity="0"/>
</linearGradient>
<linearGradient id="paint31_linear_122_130" x1="52.5" y1="-94" x2="52.5" y2="217.381" gradientUnits="userSpaceOnUse">
<stop stop-color="#F7DD43"/>
<stop offset="1" stop-color="#F7DD43" stop-opacity="0"/>
</linearGradient>
<linearGradient id="paint32_linear_122_130" x1="52.5" y1="-94" x2="52.5" y2="217.381" gradientUnits="userSpaceOnUse">
<stop stop-color="#F7DD43"/>
<stop offset="1" stop-color="#F7DD43" stop-opacity="0"/>
</linearGradient>
<linearGradient id="paint33_linear_122_130" x1="52.5" y1="-94" x2="52.5" y2="217.381" gradientUnits="userSpaceOnUse">
<stop stop-color="#F7DD43"/>
<stop offset="1" stop-color="#F7DD43" stop-opacity="0"/>
</linearGradient>
<linearGradient id="paint34_linear_122_130" x1="52.5" y1="-94" x2="52.5" y2="217.381" gradientUnits="userSpaceOnUse">
<stop stop-color="#F7DD43"/>
<stop offset="1" stop-color="#F7DD43" stop-opacity="0"/>
</linearGradient>
<linearGradient id="paint35_linear_122_130" x1="52.5" y1="-94" x2="52.5" y2="217.381" gradientUnits="userSpaceOnUse">
<stop stop-color="#F7DD43"/>
<stop offset="1" stop-color="#F7DD43" stop-opacity="0"/>
</linearGradient>
<linearGradient id="paint36_linear_122_130" x1="52.5" y1="-94" x2="52.5" y2="217.381" gradientUnits="userSpaceOnUse">
<stop stop-color="#F7DD43"/>
<stop offset="1" stop-color="#F7DD43" stop-opacity="0"/>
</linearGradient>
<linearGradient id="paint37_linear_122_130" x1="52.5" y1="-94" x2="52.5" y2="217.381" gradientUnits="userSpaceOnUse">
<stop stop-color="#F7DD43"/>
<stop offset="1" stop-color="#F7DD43" stop-opacity="0"/>
</linearGradient>
<linearGradient id="paint38_linear_122_130" x1="52.5" y1="-94" x2="52.5" y2="217.381" gradientUnits="userSpaceOnUse">
<stop stop-color="#F7DD43"/>
<stop offset="1" stop-color="#F7DD43" stop-opacity="0"/>
</linearGradient>
<linearGradient id="paint39_linear_122_130" x1="52.5" y1="-94" x2="52.5" y2="217.381" gradientUnits="userSpaceOnUse">
<stop stop-color="#F7DD43"/>
<stop offset="1" stop-color="#F7DD43" stop-opacity="0"/>
</linearGradient>
<linearGradient id="paint40_linear_122_130" x1="52.5" y1="-94" x2="52.5" y2="217.381" gradientUnits="userSpaceOnUse">
<stop stop-color="#F7DD43"/>
<stop offset="1" stop-color="#F7DD43" stop-opacity="0"/>
</linearGradient>
<linearGradient id="paint41_linear_122_130" x1="52.5" y1="-94" x2="52.5" y2="217.381" gradientUnits="userSpaceOnUse">
<stop stop-color="#F7DD43"/>
<stop offset="1" stop-color="#F7DD43" stop-opacity="0"/>
</linearGradient>
<linearGradient id="paint42_linear_122_130" x1="52.5" y1="-94" x2="52.5" y2="217.381" gradientUnits="userSpaceOnUse">
<stop stop-color="#F7DD43"/>
<stop offset="1" stop-color="#F7DD43" stop-opacity="0"/>
</linearGradient>
<linearGradient id="paint43_linear_122_130" x1="52.5" y1="-94" x2="52.5" y2="217.381" gradientUnits="userSpaceOnUse">
<stop stop-color="#F7DD43"/>
<stop offset="1" stop-color="#F7DD43" stop-opacity="0"/>
</linearGradient>
<linearGradient id="paint44_linear_122_130" x1="52.5" y1="-94" x2="52.5" y2="217.381" gradientUnits="userSpaceOnUse">
<stop stop-color="#F7DD43"/>
<stop offset="1" stop-color="#F7DD43" stop-opacity="0"/>
</linearGradient>
<linearGradient id="paint45_linear_122_130" x1="52.5" y1="-94" x2="52.5" y2="217.381" gradientUnits="userSpaceOnUse">
<stop stop-color="#F7DD43"/>
<stop offset="1" stop-color="#F7DD43" stop-opacity="0"/>
</linearGradient>
<linearGradient id="paint46_linear_122_130" x1="52.5" y1="-94" x2="52.5" y2="217.381" gradientUnits="userSpaceOnUse">
<stop stop-color="#F7DD43"/>
<stop offset="1" stop-color="#F7DD43" stop-opacity="0"/>
</linearGradient>
<linearGradient id="paint47_linear_122_130" x1="1016.5" y1="-316" x2="1016.5" y2="-17.1821" gradientUnits="userSpaceOnUse">
<stop stop-color="#F7DD43"/>
<stop offset="1" stop-color="#F7DD43" stop-opacity="0"/>
</linearGradient>
<linearGradient id="paint48_linear_122_130" x1="1016.5" y1="-316" x2="1016.5" y2="-17.1821" gradientUnits="userSpaceOnUse">
<stop stop-color="#F7DD43"/>
<stop offset="1" stop-color="#F7DD43" stop-opacity="0"/>
</linearGradient>
<linearGradient id="paint49_linear_122_130" x1="1016.5" y1="-316" x2="1016.5" y2="-17.1821" gradientUnits="userSpaceOnUse">
<stop stop-color="#F7DD43"/>
<stop offset="1" stop-color="#F7DD43" stop-opacity="0"/>
</linearGradient>
<linearGradient id="paint50_linear_122_130" x1="1016.5" y1="-316" x2="1016.5" y2="-17.1821" gradientUnits="userSpaceOnUse">
<stop stop-color="#F7DD43"/>
<stop offset="1" stop-color="#F7DD43" stop-opacity="0"/>
</linearGradient>
<linearGradient id="paint51_linear_122_130" x1="1016.5" y1="-316" x2="1016.5" y2="-17.1821" gradientUnits="userSpaceOnUse">
<stop stop-color="#F7DD43"/>
<stop offset="1" stop-color="#F7DD43" stop-opacity="0"/>
</linearGradient>
<linearGradient id="paint52_linear_122_130" x1="1016.5" y1="-316" x2="1016.5" y2="-17.1821" gradientUnits="userSpaceOnUse">
<stop stop-color="#F7DD43"/>
<stop offset="1" stop-color="#F7DD43" stop-opacity="0"/>
</linearGradient>
<linearGradient id="paint53_linear_122_130" x1="1016.5" y1="-316" x2="1016.5" y2="-17.1821" gradientUnits="userSpaceOnUse">
<stop stop-color="#F7DD43"/>
<stop offset="1" stop-color="#F7DD43" stop-opacity="0"/>
</linearGradient>
<linearGradient id="paint54_linear_122_130" x1="1016.5" y1="-316" x2="1016.5" y2="-17.1821" gradientUnits="userSpaceOnUse">
<stop stop-color="#F7DD43"/>
<stop offset="1" stop-color="#F7DD43" stop-opacity="0"/>
</linearGradient>
<linearGradient id="paint55_linear_122_130" x1="1016.5" y1="-316" x2="1016.5" y2="-17.1821" gradientUnits="userSpaceOnUse">
<stop stop-color="#F7DD43"/>
<stop offset="1" stop-color="#F7DD43" stop-opacity="0"/>
</linearGradient>
<linearGradient id="paint56_linear_122_130" x1="1016.5" y1="-316" x2="1016.5" y2="-17.1821" gradientUnits="userSpaceOnUse">
<stop stop-color="#F7DD43"/>
<stop offset="1" stop-color="#F7DD43" stop-opacity="0"/>
</linearGradient>
<linearGradient id="paint57_linear_122_130" x1="1016.5" y1="-316" x2="1016.5" y2="-17.1821" gradientUnits="userSpaceOnUse">
<stop stop-color="#F7DD43"/>
<stop offset="1" stop-color="#F7DD43" stop-opacity="0"/>
</linearGradient>
<linearGradient id="paint58_linear_122_130" x1="1016.5" y1="-316" x2="1016.5" y2="-17.1821" gradientUnits="userSpaceOnUse">
<stop stop-color="#F7DD43"/>
<stop offset="1" stop-color="#F7DD43" stop-opacity="0"/>
</linearGradient>
<linearGradient id="paint59_linear_122_130" x1="1016.5" y1="-316" x2="1016.5" y2="-17.1821" gradientUnits="userSpaceOnUse">
<stop stop-color="#F7DD43"/>
<stop offset="1" stop-color="#F7DD43" stop-opacity="0"/>
</linearGradient>
<linearGradient id="paint60_linear_122_130" x1="1016.5" y1="-316" x2="1016.5" y2="-17.1821" gradientUnits="userSpaceOnUse">
<stop stop-color="#F7DD43"/>
<stop offset="1" stop-color="#F7DD43" stop-opacity="0"/>
</linearGradient>
<linearGradient id="paint61_linear_122_130" x1="1016.5" y1="-316" x2="1016.5" y2="-17.1821" gradientUnits="userSpaceOnUse">
<stop stop-color="#F7DD43"/>
<stop offset="1" stop-color="#F7DD43" stop-opacity="0"/>
</linearGradient>
<linearGradient id="paint62_linear_122_130" x1="1016.5" y1="-316" x2="1016.5" y2="-17.1821" gradientUnits="userSpaceOnUse">
<stop stop-color="#F7DD43"/>
<stop offset="1" stop-color="#F7DD43" stop-opacity="0"/>
</linearGradient>
<linearGradient id="paint63_linear_122_130" x1="1016.5" y1="-316" x2="1016.5" y2="-17.1821" gradientUnits="userSpaceOnUse">
<stop stop-color="#F7DD43"/>
<stop offset="1" stop-color="#F7DD43" stop-opacity="0"/>
</linearGradient>
<linearGradient id="paint64_linear_122_130" x1="1016.5" y1="-316" x2="1016.5" y2="-17.1821" gradientUnits="userSpaceOnUse">
<stop stop-color="#F7DD43"/>
<stop offset="1" stop-color="#F7DD43" stop-opacity="0"/>
</linearGradient>
<linearGradient id="paint65_linear_122_130" x1="1016.5" y1="-316" x2="1016.5" y2="-17.1821" gradientUnits="userSpaceOnUse">
<stop stop-color="#F7DD43"/>
<stop offset="1" stop-color="#F7DD43" stop-opacity="0"/>
</linearGradient>
<linearGradient id="paint66_linear_122_130" x1="1016.5" y1="-316" x2="1016.5" y2="-17.1821" gradientUnits="userSpaceOnUse">
<stop stop-color="#F7DD43"/>
<stop offset="1" stop-color="#F7DD43" stop-opacity="0"/>
</linearGradient>
<linearGradient id="paint67_linear_122_130" x1="1016.5" y1="-316" x2="1016.5" y2="-17.1821" gradientUnits="userSpaceOnUse">
<stop stop-color="#F7DD43"/>
<stop offset="1" stop-color="#F7DD43" stop-opacity="0"/>
</linearGradient>
<linearGradient id="paint68_linear_122_130" x1="1016.5" y1="-316" x2="1016.5" y2="-17.1821" gradientUnits="userSpaceOnUse">
<stop stop-color="#F7DD43"/>
<stop offset="1" stop-color="#F7DD43" stop-opacity="0"/>
</linearGradient>
<linearGradient id="paint69_linear_122_130" x1="1016.5" y1="-316" x2="1016.5" y2="-17.1821" gradientUnits="userSpaceOnUse">
<stop stop-color="#F7DD43"/>
<stop offset="1" stop-color="#F7DD43" stop-opacity="0"/>
</linearGradient>
<linearGradient id="paint70_linear_122_130" x1="1016.5" y1="-316" x2="1016.5" y2="-17.1821" gradientUnits="userSpaceOnUse">
<stop stop-color="#F7DD43"/>
<stop offset="1" stop-color="#F7DD43" stop-opacity="0"/>
</linearGradient>
<linearGradient id="paint71_linear_122_130" x1="1016.5" y1="-316" x2="1016.5" y2="-17.1821" gradientUnits="userSpaceOnUse">
<stop stop-color="#F7DD43"/>
<stop offset="1" stop-color="#F7DD43" stop-opacity="0"/>
</linearGradient>
<linearGradient id="paint72_linear_122_130" x1="1016.5" y1="-316" x2="1016.5" y2="-17.1821" gradientUnits="userSpaceOnUse">
<stop stop-color="#F7DD43"/>
<stop offset="1" stop-color="#F7DD43" stop-opacity="0"/>
</linearGradient>
<linearGradient id="paint73_linear_122_130" x1="1016.5" y1="-316" x2="1016.5" y2="-17.1821" gradientUnits="userSpaceOnUse">
<stop stop-color="#F7DD43"/>
<stop offset="1" stop-color="#F7DD43" stop-opacity="0"/>
</linearGradient>
<linearGradient id="paint74_linear_122_130" x1="1016.5" y1="-316" x2="1016.5" y2="-17.1821" gradientUnits="userSpaceOnUse">
<stop stop-color="#F7DD43"/>
<stop offset="1" stop-color="#F7DD43" stop-opacity="0"/>
</linearGradient>
<linearGradient id="paint75_linear_122_130" x1="1016.5" y1="-316" x2="1016.5" y2="-17.1821" gradientUnits="userSpaceOnUse">
<stop stop-color="#F7DD43"/>
<stop offset="1" stop-color="#F7DD43" stop-opacity="0"/>
</linearGradient>
<linearGradient id="paint76_linear_122_130" x1="1016.5" y1="-316" x2="1016.5" y2="-17.1821" gradientUnits="userSpaceOnUse">
<stop stop-color="#F7DD43"/>
<stop offset="1" stop-color="#F7DD43" stop-opacity="0"/>
</linearGradient>
<linearGradient id="paint77_linear_122_130" x1="1016.5" y1="-316" x2="1016.5" y2="-17.1821" gradientUnits="userSpaceOnUse">
<stop stop-color="#F7DD43"/>
<stop offset="1" stop-color="#F7DD43" stop-opacity="0"/>
</linearGradient>
<linearGradient id="paint78_linear_122_130" x1="1016.5" y1="-316" x2="1016.5" y2="-17.1821" gradientUnits="userSpaceOnUse">
<stop stop-color="#F7DD43"/>
<stop offset="1" stop-color="#F7DD43" stop-opacity="0"/>
</linearGradient>
<linearGradient id="paint79_linear_122_130" x1="1016.5" y1="-316" x2="1016.5" y2="-17.1821" gradientUnits="userSpaceOnUse">
<stop stop-color="#F7DD43"/>
<stop offset="1" stop-color="#F7DD43" stop-opacity="0"/>
</linearGradient>
<linearGradient id="paint80_linear_122_130" x1="1016.5" y1="-316" x2="1016.5" y2="-17.1821" gradientUnits="userSpaceOnUse">
<stop stop-color="#F7DD43"/>
<stop offset="1" stop-color="#F7DD43" stop-opacity="0"/>
</linearGradient>
<linearGradient id="paint81_linear_122_130" x1="1016.5" y1="-316" x2="1016.5" y2="-17.1821" gradientUnits="userSpaceOnUse">
<stop stop-color="#F7DD43"/>
<stop offset="1" stop-color="#F7DD43" stop-opacity="0"/>
</linearGradient>
<linearGradient id="paint82_linear_122_130" x1="1016.5" y1="-316" x2="1016.5" y2="-17.1821" gradientUnits="userSpaceOnUse">
<stop stop-color="#F7DD43"/>
<stop offset="1" stop-color="#F7DD43" stop-opacity="0"/>
</linearGradient>
<linearGradient id="paint83_linear_122_130" x1="1016.5" y1="-316" x2="1016.5" y2="-17.1821" gradientUnits="userSpaceOnUse">
<stop stop-color="#F7DD43"/>
<stop offset="1" stop-color="#F7DD43" stop-opacity="0"/>
</linearGradient>
<linearGradient id="paint84_linear_122_130" x1="1016.5" y1="-316" x2="1016.5" y2="-17.1821" gradientUnits="userSpaceOnUse">
<stop stop-color="#F7DD43"/>
<stop offset="1" stop-color="#F7DD43" stop-opacity="0"/>
</linearGradient>
<linearGradient id="paint85_linear_122_130" x1="1016.5" y1="-316" x2="1016.5" y2="-17.1821" gradientUnits="userSpaceOnUse">
<stop stop-color="#F7DD43"/>
<stop offset="1" stop-color="#F7DD43" stop-opacity="0"/>
</linearGradient>
<linearGradient id="paint86_linear_122_130" x1="1016.5" y1="-316" x2="1016.5" y2="-17.1821" gradientUnits="userSpaceOnUse">
<stop stop-color="#F7DD43"/>
<stop offset="1" stop-color="#F7DD43" stop-opacity="0"/>
</linearGradient>
<linearGradient id="paint87_linear_122_130" x1="1016.5" y1="-316" x2="1016.5" y2="-17.1821" gradientUnits="userSpaceOnUse">
<stop stop-color="#F7DD43"/>
<stop offset="1" stop-color="#F7DD43" stop-opacity="0"/>
</linearGradient>
<linearGradient id="paint88_linear_122_130" x1="1016.5" y1="-316" x2="1016.5" y2="-17.1821" gradientUnits="userSpaceOnUse">
<stop stop-color="#F7DD43"/>
<stop offset="1" stop-color="#F7DD43" stop-opacity="0"/>
</linearGradient>
<linearGradient id="paint89_linear_122_130" x1="1016.5" y1="-316" x2="1016.5" y2="-17.1821" gradientUnits="userSpaceOnUse">
<stop stop-color="#F7DD43"/>
<stop offset="1" stop-color="#F7DD43" stop-opacity="0"/>
</linearGradient>
<linearGradient id="paint90_linear_122_130" x1="1016.5" y1="-316" x2="1016.5" y2="-17.1821" gradientUnits="userSpaceOnUse">
<stop stop-color="#F7DD43"/>
<stop offset="1" stop-color="#F7DD43" stop-opacity="0"/>
</linearGradient>
<linearGradient id="paint91_linear_122_130" x1="1016.5" y1="-316" x2="1016.5" y2="-17.1821" gradientUnits="userSpaceOnUse">
<stop stop-color="#F7DD43"/>
<stop offset="1" stop-color="#F7DD43" stop-opacity="0"/>
</linearGradient>
<linearGradient id="paint92_linear_122_130" x1="1016.5" y1="-316" x2="1016.5" y2="-17.1821" gradientUnits="userSpaceOnUse">
<stop stop-color="#F7DD43"/>
<stop offset="1" stop-color="#F7DD43" stop-opacity="0"/>
</linearGradient>
<linearGradient id="paint93_linear_122_130" x1="1016.5" y1="-316" x2="1016.5" y2="-17.1821" gradientUnits="userSpaceOnUse">
<stop stop-color="#F7DD43"/>
<stop offset="1" stop-color="#F7DD43" stop-opacity="0"/>
</linearGradient>
<clipPath id="clip0_122_130">
<rect width="1024" height="753" fill="white"/>
</clipPath>
</defs>
</svg>
