<svg width="1024" height="753" viewBox="0 0 1024 753" fill="none" xmlns="http://www.w3.org/2000/svg">
<g clip-path="url(#clip0_122_130)">
<rect width="1024" height="753" fill="#121214"/>
<g opacity="0.2" filter="url(#filter0_f_122_130)">
<ellipse cx="512" cy="179.17" rx="512" ry="282.476" fill="#338AF3"/>
</g>
<path d="M145.876 179.17C147.018 179.17 147.882 179.679 148.469 180.697C149.067 181.703 149.366 183.168 149.366 185.091C149.366 187.014 149.067 188.485 148.469 189.502C147.882 190.52 147.018 191.029 145.876 191.029C144.745 191.029 143.88 190.52 143.283 189.502C142.685 188.485 142.386 187.014 142.386 185.091C142.386 183.179 142.685 181.714 143.283 180.697C143.88 179.679 144.745 179.17 145.876 179.17ZM143.523 185.091C143.523 186.455 143.64 187.523 143.875 188.295L147.429 180.864C147.055 180.339 146.538 180.076 145.876 180.076C145.14 180.076 144.563 180.49 144.147 181.317C143.731 182.134 143.523 183.392 143.523 185.091ZM145.876 190.106C146.623 190.106 147.205 189.698 147.621 188.882C148.037 188.054 148.245 186.791 148.245 185.091C148.245 183.649 148.112 182.531 147.845 181.737L144.291 189.234C144.676 189.816 145.204 190.106 145.876 190.106Z" fill="url(#paint0_linear_122_130)" fill-opacity="0.6"/>
<path d="M146.836 209.141H149.19V210.03H143.091V209.141H145.812V199.715L143.219 201.342L142.771 200.587L145.972 198.507H146.836V209.141Z" fill="url(#paint1_linear_122_130)" fill-opacity="0.6"/>
<path d="M145.876 217.508C147.018 217.508 147.882 218.017 148.469 219.034C149.067 220.041 149.366 221.506 149.366 223.429C149.366 225.352 149.067 226.823 148.469 227.84C147.882 228.858 147.018 229.366 145.876 229.366C144.745 229.366 143.88 228.858 143.283 227.84C142.685 226.823 142.386 225.352 142.386 223.429C142.386 221.517 142.685 220.052 143.283 219.034C143.88 218.017 144.745 217.508 145.876 217.508ZM143.523 223.429C143.523 224.793 143.64 225.861 143.875 226.633L147.429 219.202C147.055 218.677 146.538 218.414 145.876 218.414C145.14 218.414 144.563 218.828 144.147 219.655C143.731 220.471 143.523 221.729 143.523 223.429ZM145.876 228.444C146.623 228.444 147.205 228.036 147.621 227.22C148.037 226.392 148.245 225.129 148.245 223.429C148.245 221.986 148.112 220.868 147.845 220.074L144.291 227.572C144.676 228.153 145.204 228.444 145.876 228.444Z" fill="url(#paint2_linear_122_130)" fill-opacity="0.6"/>
<path d="M146.836 247.479H149.19V248.368H143.091V247.479H145.812V238.052L143.219 239.679L142.771 238.925L145.972 236.845H146.836V247.479Z" fill="url(#paint3_linear_122_130)" fill-opacity="0.6"/>
<path d="M146.836 266.647H149.19V267.536H143.091V266.647H145.812V257.221L143.219 258.848L142.771 258.093L145.972 256.014H146.836V266.647Z" fill="url(#paint4_linear_122_130)" fill-opacity="0.6"/>
<path d="M145.876 275.015C147.018 275.015 147.882 275.523 148.469 276.541C149.067 277.547 149.366 279.012 149.366 280.935C149.366 282.859 149.067 284.329 148.469 285.347C147.882 286.364 147.018 286.873 145.876 286.873C144.745 286.873 143.88 286.364 143.283 285.347C142.685 284.329 142.386 282.859 142.386 280.935C142.386 279.023 142.685 277.559 143.283 276.541C143.88 275.523 144.745 275.015 145.876 275.015ZM143.523 280.935C143.523 282.3 143.64 283.368 143.875 284.139L147.429 276.709C147.055 276.183 146.538 275.92 145.876 275.92C145.14 275.92 144.563 276.334 144.147 277.162C143.731 277.978 143.523 279.236 143.523 280.935ZM145.876 285.951C146.623 285.951 147.205 285.542 147.621 284.726C148.037 283.899 148.245 282.635 148.245 280.935C148.245 279.493 148.112 278.375 147.845 277.581L144.291 285.078C144.676 285.66 145.204 285.951 145.876 285.951Z" fill="url(#paint5_linear_122_130)" fill-opacity="0.6"/>
<path d="M146.836 304.985H149.19V305.874H143.091V304.985H145.812V295.559L143.219 297.186L142.771 296.431L145.972 294.351H146.836V304.985Z" fill="url(#paint6_linear_122_130)" fill-opacity="0.6"/>
<path d="M145.876 313.352C147.018 313.352 147.882 313.861 148.469 314.879C149.067 315.885 149.366 317.35 149.366 319.273C149.366 321.196 149.067 322.667 148.469 323.684C147.882 324.702 147.018 325.211 145.876 325.211C144.745 325.211 143.88 324.702 143.283 323.684C142.685 322.667 142.386 321.196 142.386 319.273C142.386 317.361 142.685 315.896 143.283 314.879C143.88 313.861 144.745 313.352 145.876 313.352ZM143.523 319.273C143.523 320.637 143.64 321.705 143.875 322.477L147.429 315.046C147.055 314.521 146.538 314.258 145.876 314.258C145.14 314.258 144.563 314.672 144.147 315.499C143.731 316.316 143.523 317.574 143.523 319.273ZM145.876 324.288C146.623 324.288 147.205 323.88 147.621 323.064C148.037 322.236 148.245 320.973 148.245 319.273C148.245 317.831 148.112 316.713 147.845 315.919L144.291 323.416C144.676 323.998 145.204 324.288 145.876 324.288Z" fill="url(#paint7_linear_122_130)" fill-opacity="0.6"/>
<path d="M145.876 332.521C147.018 332.521 147.882 333.03 148.469 334.048C149.067 335.054 149.366 336.519 149.366 338.442C149.366 340.365 149.067 341.836 148.469 342.853C147.882 343.871 147.018 344.38 145.876 344.38C144.745 344.38 143.88 343.871 143.283 342.853C142.685 341.836 142.386 340.365 142.386 338.442C142.386 336.53 142.685 335.065 143.283 334.048C143.88 333.03 144.745 332.521 145.876 332.521ZM143.523 338.442C143.523 339.806 143.64 340.874 143.875 341.646L147.429 334.215C147.055 333.69 146.538 333.427 145.876 333.427C145.14 333.427 144.563 333.841 144.147 334.668C143.731 335.484 143.523 336.742 143.523 338.442ZM145.876 343.457C146.623 343.457 147.205 343.049 147.621 342.233C148.037 341.405 148.245 340.142 148.245 338.442C148.245 337 148.112 335.881 147.845 335.088L144.291 342.585C144.676 343.166 145.204 343.457 145.876 343.457Z" fill="url(#paint8_linear_122_130)" fill-opacity="0.6"/>
<path d="M146.836 362.492H149.19V363.381H143.091V362.492H145.812V353.066L143.219 354.692L142.771 353.938L145.972 351.858H146.836V362.492Z" fill="url(#paint9_linear_122_130)" fill-opacity="0.6"/>
<path d="M145.876 370.859C147.018 370.859 147.882 371.368 148.469 372.385C149.067 373.392 149.366 374.857 149.366 376.78C149.366 378.703 149.067 380.173 148.469 381.191C147.882 382.209 147.018 382.717 145.876 382.717C144.745 382.717 143.88 382.209 143.283 381.191C142.685 380.173 142.386 378.703 142.386 376.78C142.386 374.868 142.685 373.403 143.283 372.385C143.88 371.368 144.745 370.859 145.876 370.859ZM143.523 376.78C143.523 378.144 143.64 379.212 143.875 379.983L147.429 372.553C147.055 372.028 146.538 371.765 145.876 371.765C145.14 371.765 144.563 372.178 144.147 373.006C143.731 373.822 143.523 375.08 143.523 376.78ZM145.876 381.795C146.623 381.795 147.205 381.387 147.621 380.57C148.037 379.743 148.245 378.479 148.245 376.78C148.245 375.337 148.112 374.219 147.845 373.425L144.291 380.923C144.676 381.504 145.204 381.795 145.876 381.795Z" fill="url(#paint10_linear_122_130)" fill-opacity="0.6"/>
<path d="M146.836 400.83H149.19V401.718H143.091V400.83H145.812V391.403L143.219 393.03L142.771 392.275L145.972 390.196H146.836V400.83Z" fill="url(#paint11_linear_122_130)" fill-opacity="0.6"/>
<path d="M146.836 419.998H149.19V420.887H143.091V419.998H145.812V410.572L143.219 412.199L142.771 411.444L145.972 409.364H146.836V419.998Z" fill="url(#paint12_linear_122_130)" fill-opacity="0.6"/>
<path d="M175.603 217.508C176.745 217.508 177.61 218.017 178.197 219.034C178.794 220.041 179.093 221.506 179.093 223.429C179.093 225.352 178.794 226.823 178.197 227.84C177.61 228.858 176.745 229.366 175.603 229.366C174.472 229.366 173.608 228.858 173.01 227.84C172.413 226.823 172.114 225.352 172.114 223.429C172.114 221.517 172.413 220.052 173.01 219.034C173.608 218.017 174.472 217.508 175.603 217.508ZM173.25 223.429C173.25 224.793 173.368 225.861 173.603 226.633L177.156 219.202C176.783 218.677 176.265 218.414 175.603 218.414C174.867 218.414 174.291 218.828 173.875 219.655C173.459 220.471 173.25 221.729 173.25 223.429ZM175.603 228.444C176.35 228.444 176.932 228.036 177.348 227.22C177.764 226.392 177.973 225.129 177.973 223.429C177.973 221.986 177.839 220.868 177.572 220.074L174.019 227.572C174.403 228.153 174.931 228.444 175.603 228.444Z" fill="url(#paint13_linear_122_130)" fill-opacity="0.6"/>
<path d="M176.564 247.479H178.917V248.368H172.818V247.479H175.539V238.052L172.946 239.679L172.498 238.925L175.7 236.845H176.564V247.479Z" fill="url(#paint14_linear_122_130)" fill-opacity="0.6"/>
<path d="M175.603 255.846C176.745 255.846 177.61 256.355 178.197 257.372C178.794 258.379 179.093 259.843 179.093 261.767C179.093 263.69 178.794 265.16 178.197 266.178C177.61 267.195 176.745 267.704 175.603 267.704C174.472 267.704 173.608 267.195 173.01 266.178C172.413 265.16 172.114 263.69 172.114 261.767C172.114 259.855 172.413 258.39 173.01 257.372C173.608 256.355 174.472 255.846 175.603 255.846ZM173.25 261.767C173.25 263.131 173.368 264.199 173.603 264.97L177.156 257.54C176.783 257.014 176.265 256.752 175.603 256.752C174.867 256.752 174.291 257.165 173.875 257.993C173.459 258.809 173.25 260.067 173.25 261.767ZM175.603 266.782C176.35 266.782 176.932 266.374 177.348 265.557C177.764 264.73 177.973 263.466 177.973 261.767C177.973 260.324 177.839 259.206 177.572 258.412L174.019 265.91C174.403 266.491 174.931 266.782 175.603 266.782Z" fill="url(#paint15_linear_122_130)" fill-opacity="0.6"/>
<path d="M175.603 275.015C176.745 275.015 177.61 275.523 178.197 276.541C178.794 277.547 179.093 279.012 179.093 280.935C179.093 282.859 178.794 284.329 178.197 285.347C177.61 286.364 176.745 286.873 175.603 286.873C174.472 286.873 173.608 286.364 173.01 285.347C172.413 284.329 172.114 282.859 172.114 280.935C172.114 279.023 172.413 277.559 173.01 276.541C173.608 275.523 174.472 275.015 175.603 275.015ZM173.25 280.935C173.25 282.3 173.368 283.368 173.603 284.139L177.156 276.709C176.783 276.183 176.265 275.92 175.603 275.92C174.867 275.92 174.291 276.334 173.875 277.162C173.459 277.978 173.25 279.236 173.25 280.935ZM175.603 285.951C176.35 285.951 176.932 285.542 177.348 284.726C177.764 283.899 177.973 282.635 177.973 280.935C177.973 279.493 177.839 278.375 177.572 277.581L174.019 285.078C174.403 285.66 174.931 285.951 175.603 285.951Z" fill="url(#paint16_linear_122_130)" fill-opacity="0.6"/>
<path d="M176.564 304.985H178.917V305.874H172.818V304.985H175.539V295.559L172.946 297.186L172.498 296.431L175.7 294.351H176.564V304.985Z" fill="url(#paint17_linear_122_130)" fill-opacity="0.6"/>
<path d="M175.603 313.352C176.745 313.352 177.61 313.861 178.197 314.879C178.794 315.885 179.093 317.35 179.093 319.273C179.093 321.196 178.794 322.667 178.197 323.684C177.61 324.702 176.745 325.211 175.603 325.211C174.472 325.211 173.608 324.702 173.01 323.684C172.413 322.667 172.114 321.196 172.114 319.273C172.114 317.361 172.413 315.896 173.01 314.879C173.608 313.861 174.472 313.352 175.603 313.352ZM173.25 319.273C173.25 320.637 173.368 321.705 173.603 322.477L177.156 315.046C176.783 314.521 176.265 314.258 175.603 314.258C174.867 314.258 174.291 314.672 173.875 315.499C173.459 316.316 173.25 317.574 173.25 319.273ZM175.603 324.288C176.35 324.288 176.932 323.88 177.348 323.064C177.764 322.236 177.973 320.973 177.973 319.273C177.973 317.831 177.839 316.713 177.572 315.919L174.019 323.416C174.403 323.998 174.931 324.288 175.603 324.288Z" fill="url(#paint18_linear_122_130)" fill-opacity="0.6"/>
<path d="M176.564 343.323H178.917V344.212H172.818V343.323H175.539V333.897L172.946 335.524L172.498 334.769L175.7 332.689H176.564V343.323Z" fill="url(#paint19_linear_122_130)" fill-opacity="0.6"/>
<path d="M175.603 351.69C176.745 351.69 177.61 352.199 178.197 353.216C178.794 354.223 179.093 355.688 179.093 357.611C179.093 359.534 178.794 361.005 178.197 362.022C177.61 363.04 176.745 363.548 175.603 363.548C174.472 363.548 173.608 363.04 173.01 362.022C172.413 361.005 172.114 359.534 172.114 357.611C172.114 355.699 172.413 354.234 173.01 353.216C173.608 352.199 174.472 351.69 175.603 351.69ZM173.25 357.611C173.25 358.975 173.368 360.043 173.603 360.815L177.156 353.384C176.783 352.859 176.265 352.596 175.603 352.596C174.867 352.596 174.291 353.01 173.875 353.837C173.459 354.653 173.25 355.911 173.25 357.611ZM175.603 362.626C176.35 362.626 176.932 362.218 177.348 361.402C177.764 360.574 177.973 359.311 177.973 357.611C177.973 356.168 177.839 355.05 177.572 354.256L174.019 361.754C174.403 362.335 174.931 362.626 175.603 362.626Z" fill="url(#paint20_linear_122_130)" fill-opacity="0.6"/>
<path d="M175.603 370.859C176.745 370.859 177.61 371.368 178.197 372.385C178.794 373.392 179.093 374.857 179.093 376.78C179.093 378.703 178.794 380.173 178.197 381.191C177.61 382.209 176.745 382.717 175.603 382.717C174.472 382.717 173.608 382.209 173.01 381.191C172.413 380.173 172.114 378.703 172.114 376.78C172.114 374.868 172.413 373.403 173.01 372.385C173.608 371.368 174.472 370.859 175.603 370.859ZM173.25 376.78C173.25 378.144 173.368 379.212 173.603 379.983L177.156 372.553C176.783 372.028 176.265 371.765 175.603 371.765C174.867 371.765 174.291 372.178 173.875 373.006C173.459 373.822 173.25 375.08 173.25 376.78ZM175.603 381.795C176.35 381.795 176.932 381.387 177.348 380.57C177.764 379.743 177.973 378.479 177.973 376.78C177.973 375.337 177.839 374.219 177.572 373.425L174.019 380.923C174.403 381.504 174.931 381.795 175.603 381.795Z" fill="url(#paint21_linear_122_130)" fill-opacity="0.6"/>
<path d="M176.564 400.83H178.917V401.718H172.818V400.83H175.539V391.403L172.946 393.03L172.498 392.275L175.7 390.196H176.564V400.83Z" fill="url(#paint22_linear_122_130)" fill-opacity="0.6"/>
<path d="M175.603 409.197C176.745 409.197 177.61 409.706 178.197 410.723C178.794 411.729 179.093 413.194 179.093 415.118C179.093 417.041 178.794 418.511 178.197 419.529C177.61 420.546 176.745 421.055 175.603 421.055C174.472 421.055 173.608 420.546 173.01 419.529C172.413 418.511 172.114 417.041 172.114 415.118C172.114 413.205 172.413 411.741 173.01 410.723C173.608 409.706 174.472 409.197 175.603 409.197ZM173.25 415.118C173.25 416.482 173.368 417.55 173.603 418.321L177.156 410.891C176.783 410.365 176.265 410.102 175.603 410.102C174.867 410.102 174.291 410.516 173.875 411.344C173.459 412.16 173.25 413.418 173.25 415.118ZM175.603 420.133C176.35 420.133 176.932 419.724 177.348 418.908C177.764 418.081 177.973 416.817 177.973 415.118C177.973 413.675 177.839 412.557 177.572 411.763L174.019 419.26C174.403 419.842 174.931 420.133 175.603 420.133Z" fill="url(#paint23_linear_122_130)" fill-opacity="0.6"/>
<path d="M176.564 439.167H178.917V440.056H172.818V439.167H175.539V429.741L172.946 431.368L172.498 430.613L175.7 428.533H176.564V439.167Z" fill="url(#paint24_linear_122_130)" fill-opacity="0.6"/>
<path d="M176.564 458.336H178.917V459.225H172.818V458.336H175.539V448.91L172.946 450.537L172.498 449.782L175.7 447.702H176.564V458.336Z" fill="url(#paint25_linear_122_130)" fill-opacity="0.6"/>
<path d="M131.012 236.677C132.154 236.677 133.019 237.186 133.605 238.203C134.203 239.21 134.502 240.674 134.502 242.598C134.502 244.521 134.203 245.991 133.605 247.009C133.019 248.027 132.154 248.535 131.012 248.535C129.881 248.535 129.017 248.027 128.419 247.009C127.822 245.991 127.523 244.521 127.523 242.598C127.523 240.686 127.822 239.221 128.419 238.203C129.017 237.186 129.881 236.677 131.012 236.677ZM128.659 242.598C128.659 243.962 128.777 245.03 129.011 245.801L132.565 238.371C132.192 237.845 131.674 237.583 131.012 237.583C130.276 237.583 129.7 237.996 129.284 238.824C128.867 239.64 128.659 240.898 128.659 242.598ZM131.012 247.613C131.759 247.613 132.341 247.205 132.757 246.388C133.173 245.561 133.381 244.297 133.381 242.598C133.381 241.155 133.248 240.037 132.981 239.243L129.428 246.741C129.812 247.322 130.34 247.613 131.012 247.613Z" fill="url(#paint26_linear_122_130)" fill-opacity="0.6"/>
<path d="M131.012 255.846C132.154 255.846 133.019 256.355 133.605 257.372C134.203 258.379 134.502 259.843 134.502 261.767C134.502 263.69 134.203 265.16 133.605 266.178C133.019 267.195 132.154 267.704 131.012 267.704C129.881 267.704 129.017 267.195 128.419 266.178C127.822 265.16 127.523 263.69 127.523 261.767C127.523 259.855 127.822 258.39 128.419 257.372C129.017 256.355 129.881 255.846 131.012 255.846ZM128.659 261.767C128.659 263.131 128.777 264.199 129.011 264.97L132.565 257.54C132.192 257.014 131.674 256.752 131.012 256.752C130.276 256.752 129.7 257.165 129.284 257.993C128.867 258.809 128.659 260.067 128.659 261.767ZM131.012 266.782C131.759 266.782 132.341 266.374 132.757 265.557C133.173 264.73 133.381 263.466 133.381 261.767C133.381 260.324 133.248 259.206 132.981 258.412L129.428 265.91C129.812 266.491 130.34 266.782 131.012 266.782Z" fill="url(#paint27_linear_122_130)" fill-opacity="0.6"/>
<path d="M131.973 285.816H134.326V286.705H128.227V285.816H130.948V276.39L128.355 278.017L127.907 277.262L131.108 275.182H131.973V285.816Z" fill="url(#paint28_linear_122_130)" fill-opacity="0.6"/>
<path d="M131.012 294.184C132.154 294.184 133.019 294.692 133.605 295.71C134.203 296.716 134.502 298.181 134.502 300.104C134.502 302.028 134.203 303.498 133.605 304.516C133.019 305.533 132.154 306.042 131.012 306.042C129.881 306.042 129.017 305.533 128.419 304.516C127.822 303.498 127.523 302.028 127.523 300.104C127.523 298.192 127.822 296.727 128.419 295.71C129.017 294.692 129.881 294.184 131.012 294.184ZM128.659 300.104C128.659 301.469 128.777 302.536 129.011 303.308L132.565 295.878C132.192 295.352 131.674 295.089 131.012 295.089C130.276 295.089 129.7 295.503 129.284 296.33C128.867 297.147 128.659 298.405 128.659 300.104ZM131.012 305.119C131.759 305.119 132.341 304.711 132.757 303.895C133.173 303.068 133.381 301.804 133.381 300.104C133.381 298.662 133.248 297.544 132.981 296.75L129.428 304.247C129.812 304.829 130.34 305.119 131.012 305.119Z" fill="url(#paint29_linear_122_130)" fill-opacity="0.6"/>
<path d="M131.973 324.154H134.326V325.043H128.227V324.154H130.948V314.728L128.355 316.355L127.907 315.6L131.108 313.52H131.973V324.154Z" fill="url(#paint30_linear_122_130)" fill-opacity="0.6"/>
<path d="M131.973 343.323H134.326V344.212H128.227V343.323H130.948V333.897L128.355 335.524L127.907 334.769L131.108 332.689H131.973V343.323Z" fill="url(#paint31_linear_122_130)" fill-opacity="0.6"/>
<path d="M161.7 209.141H164.053V210.03H157.955V209.141H160.676V199.715L158.083 201.342L157.634 200.587L160.836 198.507H161.7V209.141Z" fill="url(#paint32_linear_122_130)" fill-opacity="0.6"/>
<path d="M160.74 217.508C161.882 217.508 162.746 218.017 163.333 219.034C163.931 220.041 164.229 221.506 164.229 223.429C164.229 225.352 163.931 226.823 163.333 227.84C162.746 228.858 161.882 229.366 160.74 229.366C159.609 229.366 158.744 228.858 158.147 227.84C157.549 226.823 157.25 225.352 157.25 223.429C157.25 221.517 157.549 220.052 158.147 219.034C158.744 218.017 159.609 217.508 160.74 217.508ZM158.387 223.429C158.387 224.793 158.504 225.861 158.739 226.633L162.292 219.202C161.919 218.677 161.401 218.414 160.74 218.414C160.003 218.414 159.427 218.828 159.011 219.655C158.595 220.471 158.387 221.729 158.387 223.429ZM160.74 228.444C161.487 228.444 162.068 228.036 162.485 227.22C162.901 226.392 163.109 225.129 163.109 223.429C163.109 221.986 162.975 220.868 162.709 220.074L159.155 227.572C159.539 228.153 160.067 228.444 160.74 228.444Z" fill="url(#paint33_linear_122_130)" fill-opacity="0.6"/>
<path d="M161.7 247.479H164.053V248.368H157.955V247.479H160.676V238.052L158.083 239.679L157.634 238.925L160.836 236.845H161.7V247.479Z" fill="url(#paint34_linear_122_130)" fill-opacity="0.6"/>
<path d="M161.7 266.647H164.053V267.536H157.955V266.647H160.676V257.221L158.083 258.848L157.634 258.093L160.836 256.014H161.7V266.647Z" fill="url(#paint35_linear_122_130)" fill-opacity="0.6"/>
<path d="M160.74 275.015C161.882 275.015 162.746 275.523 163.333 276.541C163.931 277.547 164.229 279.012 164.229 280.935C164.229 282.859 163.931 284.329 163.333 285.347C162.746 286.364 161.882 286.873 160.74 286.873C159.609 286.873 158.744 286.364 158.147 285.347C157.549 284.329 157.25 282.859 157.25 280.935C157.25 279.023 157.549 277.559 158.147 276.541C158.744 275.523 159.609 275.015 160.74 275.015ZM158.387 280.935C158.387 282.3 158.504 283.368 158.739 284.139L162.292 276.709C161.919 276.183 161.401 275.92 160.74 275.92C160.003 275.92 159.427 276.334 159.011 277.162C158.595 277.978 158.387 279.236 158.387 280.935ZM160.74 285.951C161.487 285.951 162.068 285.542 162.485 284.726C162.901 283.899 163.109 282.635 163.109 280.935C163.109 279.493 162.975 278.375 162.709 277.581L159.155 285.078C159.539 285.66 160.067 285.951 160.74 285.951Z" fill="url(#paint36_linear_122_130)" fill-opacity="0.6"/>
<path d="M161.7 304.985H164.053V305.874H157.955V304.985H160.676V295.559L158.083 297.186L157.634 296.431L160.836 294.351H161.7V304.985Z" fill="url(#paint37_linear_122_130)" fill-opacity="0.6"/>
<path d="M161.7 324.154H164.053V325.043H157.955V324.154H160.676V314.728L158.083 316.355L157.634 315.6L160.836 313.52H161.7V324.154Z" fill="url(#paint38_linear_122_130)" fill-opacity="0.6"/>
<path d="M160.74 332.521C161.882 332.521 162.746 333.03 163.333 334.048C163.931 335.054 164.229 336.519 164.229 338.442C164.229 340.365 163.931 341.836 163.333 342.853C162.746 343.871 161.882 344.38 160.74 344.38C159.609 344.38 158.744 343.871 158.147 342.853C157.549 341.836 157.25 340.365 157.25 338.442C157.25 336.53 157.549 335.065 158.147 334.048C158.744 333.03 159.609 332.521 160.74 332.521ZM158.387 338.442C158.387 339.806 158.504 340.874 158.739 341.646L162.292 334.215C161.919 333.69 161.401 333.427 160.74 333.427C160.003 333.427 159.427 333.841 159.011 334.668C158.595 335.484 158.387 336.742 158.387 338.442ZM160.74 343.457C161.487 343.457 162.068 343.049 162.485 342.233C162.901 341.405 163.109 340.142 163.109 338.442C163.109 337 162.975 335.881 162.709 335.088L159.155 342.585C159.539 343.166 160.067 343.457 160.74 343.457Z" fill="url(#paint39_linear_122_130)" fill-opacity="0.6"/>
<path d="M161.7 362.492H164.053V363.381H157.955V362.492H160.676V353.066L158.083 354.692L157.634 353.938L160.836 351.858H161.7V362.492Z" fill="url(#paint40_linear_122_130)" fill-opacity="0.6"/>
<path d="M160.74 370.859C161.882 370.859 162.746 371.368 163.333 372.385C163.931 373.392 164.229 374.857 164.229 376.78C164.229 378.703 163.931 380.173 163.333 381.191C162.746 382.209 161.882 382.717 160.74 382.717C159.609 382.717 158.744 382.209 158.147 381.191C157.549 380.173 157.25 378.703 157.25 376.78C157.25 374.868 157.549 373.403 158.147 372.385C158.744 371.368 159.609 370.859 160.74 370.859ZM158.387 376.78C158.387 378.144 158.504 379.212 158.739 379.983L162.292 372.553C161.919 372.028 161.401 371.765 160.74 371.765C160.003 371.765 159.427 372.178 159.011 373.006C158.595 373.822 158.387 375.08 158.387 376.78ZM160.74 381.795C161.487 381.795 162.068 381.387 162.485 380.57C162.901 379.743 163.109 378.479 163.109 376.78C163.109 375.337 162.975 374.219 162.709 373.425L159.155 380.923C159.539 381.504 160.067 381.795 160.74 381.795Z" fill="url(#paint41_linear_122_130)" fill-opacity="0.6"/>
<path d="M190.467 198.339C191.609 198.339 192.473 198.848 193.06 199.866C193.658 200.872 193.957 202.337 193.957 204.26C193.957 206.183 193.658 207.654 193.06 208.671C192.473 209.689 191.609 210.198 190.467 210.198C189.336 210.198 188.472 209.689 187.874 208.671C187.276 207.654 186.978 206.183 186.978 204.26C186.978 202.348 187.276 200.883 187.874 199.866C188.472 198.848 189.336 198.339 190.467 198.339ZM188.114 204.26C188.114 205.624 188.232 206.692 188.466 207.464L192.02 200.033C191.646 199.508 191.129 199.245 190.467 199.245C189.731 199.245 189.155 199.659 188.738 200.486C188.322 201.302 188.114 202.56 188.114 204.26ZM190.467 209.275C191.214 209.275 191.796 208.867 192.212 208.051C192.628 207.223 192.836 205.96 192.836 204.26C192.836 202.818 192.703 201.699 192.436 200.906L188.883 208.403C189.267 208.984 189.795 209.275 190.467 209.275Z" fill="url(#paint42_linear_122_130)" fill-opacity="0.6"/>
<path d="M191.428 228.31H193.781V229.199H187.682V228.31H190.403V218.883L187.81 220.51L187.362 219.756L190.563 217.676H191.428V228.31Z" fill="url(#paint43_linear_122_130)" fill-opacity="0.6"/>
<path d="M191.428 247.479H193.781V248.368H187.682V247.479H190.403V238.052L187.81 239.679L187.362 238.925L190.563 236.845H191.428V247.479Z" fill="url(#paint44_linear_122_130)" fill-opacity="0.6"/>
<path d="M190.467 255.846C191.609 255.846 192.473 256.355 193.06 257.372C193.658 258.379 193.957 259.843 193.957 261.767C193.957 263.69 193.658 265.16 193.06 266.178C192.473 267.195 191.609 267.704 190.467 267.704C189.336 267.704 188.472 267.195 187.874 266.178C187.276 265.16 186.978 263.69 186.978 261.767C186.978 259.855 187.276 258.39 187.874 257.372C188.472 256.355 189.336 255.846 190.467 255.846ZM188.114 261.767C188.114 263.131 188.232 264.199 188.466 264.97L192.02 257.54C191.646 257.014 191.129 256.752 190.467 256.752C189.731 256.752 189.155 257.165 188.738 257.993C188.322 258.809 188.114 260.067 188.114 261.767ZM190.467 266.782C191.214 266.782 191.796 266.374 192.212 265.557C192.628 264.73 192.836 263.466 192.836 261.767C192.836 260.324 192.703 259.206 192.436 258.412L188.883 265.91C189.267 266.491 189.795 266.782 190.467 266.782Z" fill="url(#paint45_linear_122_130)" fill-opacity="0.6"/>
<path d="M190.467 275.015C191.609 275.015 192.473 275.523 193.06 276.541C193.658 277.547 193.957 279.012 193.957 280.935C193.957 282.859 193.658 284.329 193.06 285.347C192.473 286.364 191.609 286.873 190.467 286.873C189.336 286.873 188.472 286.364 187.874 285.347C187.276 284.329 186.978 282.859 186.978 280.935C186.978 279.023 187.276 277.559 187.874 276.541C188.472 275.523 189.336 275.015 190.467 275.015ZM188.114 280.935C188.114 282.3 188.232 283.368 188.466 284.139L192.02 276.709C191.646 276.183 191.129 275.92 190.467 275.92C189.731 275.92 189.155 276.334 188.738 277.162C188.322 277.978 188.114 279.236 188.114 280.935ZM190.467 285.951C191.214 285.951 191.796 285.542 192.212 284.726C192.628 283.899 192.836 282.635 192.836 280.935C192.836 279.493 192.703 278.375 192.436 277.581L188.883 285.078C189.267 285.66 189.795 285.951 190.467 285.951Z" fill="url(#paint46_linear_122_130)" fill-opacity="0.6"/>
<g opacity="0.6">
<path d="M882.679 0C883.768 0 884.593 0.488247 885.153 1.46474C885.723 2.4305 886.008 3.83622 886.008 5.6819C886.008 7.52758 885.723 8.93867 885.153 9.91516C884.593 10.8917 883.768 11.3799 882.679 11.3799C881.599 11.3799 880.775 10.8917 880.205 9.91516C879.635 8.93867 879.35 7.52758 879.35 5.6819C879.35 3.84695 879.635 2.44123 880.205 1.46474C880.775 0.488247 881.599 0 882.679 0ZM880.434 5.6819C880.434 6.99105 880.546 8.01583 880.77 8.75625L884.16 1.6257C883.804 1.12136 883.31 0.869187 882.679 0.869187C881.976 0.869187 881.426 1.26622 881.029 2.06029C880.632 2.84363 880.434 4.05084 880.434 5.6819ZM882.679 10.4946C883.391 10.4946 883.946 10.1029 884.343 9.31961C884.74 8.52554 884.939 7.31297 884.939 5.6819C884.939 4.29764 884.812 3.22457 884.557 2.46269L881.167 9.65763C881.533 10.2156 882.037 10.4946 882.679 10.4946Z" fill="url(#paint47_linear_122_130)"/>
<path d="M883.595 28.7613H885.84V29.6144H880.021V28.7613H882.618V19.7154L880.144 21.2767L879.716 20.5523L882.77 18.5564H883.595V28.7613Z" fill="url(#paint48_linear_122_130)"/>
<path d="M882.679 36.791C883.768 36.791 884.593 37.2792 885.153 38.2557C885.723 39.2215 886.008 40.6272 886.008 42.4729C886.008 44.3185 885.723 45.7296 885.153 46.7061C884.593 47.6826 883.768 48.1709 882.679 48.1709C881.599 48.1709 880.775 47.6826 880.205 46.7061C879.635 45.7296 879.35 44.3185 879.35 42.4729C879.35 40.6379 879.635 39.2322 880.205 38.2557C880.775 37.2792 881.599 36.791 882.679 36.791ZM880.434 42.4729C880.434 43.782 880.546 44.8068 880.77 45.5472L884.16 38.4167C883.804 37.9123 883.31 37.6601 882.679 37.6601C881.976 37.6601 881.426 38.0572 881.029 38.8512C880.632 39.6346 880.434 40.8418 880.434 42.4729ZM882.679 47.2856C883.391 47.2856 883.946 46.8939 884.343 46.1106C884.74 45.3165 884.939 44.1039 884.939 42.4729C884.939 41.0886 884.812 40.0155 884.557 39.2536L881.167 46.4486C881.533 47.0066 882.037 47.2856 882.679 47.2856Z" fill="url(#paint49_linear_122_130)"/>
<path d="M883.595 65.5523H885.84V66.4054H880.021V65.5523H882.618V56.5063L880.144 58.0676L879.716 57.3433L882.77 55.3474H883.595V65.5523Z" fill="url(#paint50_linear_122_130)"/>
<path d="M883.595 83.9478H885.84V84.8009H880.021V83.9478H882.618V74.9018L880.144 76.4631L879.716 75.7388L882.77 73.7429H883.595V83.9478Z" fill="url(#paint51_linear_122_130)"/>
<path d="M882.679 91.9774C883.768 91.9774 884.593 92.4656 885.153 93.4421C885.723 94.4079 886.008 95.8136 886.008 97.6593C886.008 99.505 885.723 100.916 885.153 101.893C884.593 102.869 883.768 103.357 882.679 103.357C881.599 103.357 880.775 102.869 880.205 101.893C879.635 100.916 879.35 99.505 879.35 97.6593C879.35 95.8243 879.635 94.4186 880.205 93.4421C880.775 92.4656 881.599 91.9774 882.679 91.9774ZM880.434 97.6593C880.434 98.9684 880.546 99.9932 880.77 100.734L884.16 93.6031C883.804 93.0987 883.31 92.8466 882.679 92.8466C881.976 92.8466 881.426 93.2436 881.029 94.0377C880.632 94.821 880.434 96.0282 880.434 97.6593ZM882.679 102.472C883.391 102.472 883.946 102.08 884.343 101.297C884.74 100.503 884.939 99.2904 884.939 97.6593C884.939 96.275 884.812 95.202 884.557 94.4401L881.167 101.635C881.533 102.193 882.037 102.472 882.679 102.472Z" fill="url(#paint52_linear_122_130)"/>
<path d="M883.595 120.739H885.84V121.592H880.021V120.739H882.618V111.693L880.144 113.254L879.716 112.53L882.77 110.534H883.595V120.739Z" fill="url(#paint53_linear_122_130)"/>
<path d="M882.679 128.768C883.768 128.768 884.593 129.257 885.153 130.233C885.723 131.199 886.008 132.605 886.008 134.45C886.008 136.296 885.723 137.707 885.153 138.684C884.593 139.66 883.768 140.148 882.679 140.148C881.599 140.148 880.775 139.66 880.205 138.684C879.635 137.707 879.35 136.296 879.35 134.45C879.35 132.615 879.635 131.21 880.205 130.233C880.775 129.257 881.599 128.768 882.679 128.768ZM880.434 134.45C880.434 135.759 880.546 136.784 880.77 137.525L884.16 130.394C883.804 129.89 883.31 129.638 882.679 129.638C881.976 129.638 881.426 130.035 881.029 130.829C880.632 131.612 880.434 132.819 880.434 134.45ZM882.679 139.263C883.391 139.263 883.946 138.871 884.343 138.088C884.74 137.294 884.939 136.081 884.939 134.45C884.939 133.066 884.812 131.993 884.557 131.231L881.167 138.426C881.533 138.984 882.037 139.263 882.679 139.263Z" fill="url(#paint54_linear_122_130)"/>
<path d="M882.679 147.164C883.768 147.164 884.593 147.652 885.153 148.629C885.723 149.594 886.008 151 886.008 152.846C886.008 154.691 885.723 156.102 885.153 157.079C884.593 158.055 883.768 158.544 882.679 158.544C881.599 158.544 880.775 158.055 880.205 157.079C879.635 156.102 879.35 154.691 879.35 152.846C879.35 151.011 879.635 149.605 880.205 148.629C880.775 147.652 881.599 147.164 882.679 147.164ZM880.434 152.846C880.434 154.155 880.546 155.18 880.77 155.92L884.16 148.79C883.804 148.285 883.31 148.033 882.679 148.033C881.976 148.033 881.426 148.43 881.029 149.224C880.632 150.007 880.434 151.215 880.434 152.846ZM882.679 157.658C883.391 157.658 883.946 157.267 884.343 156.483C884.74 155.689 884.939 154.477 884.939 152.846C884.939 151.461 884.812 150.388 884.557 149.627L881.167 156.821C881.533 157.379 882.037 157.658 882.679 157.658Z" fill="url(#paint55_linear_122_130)"/>
<path d="M883.595 175.925H885.84V176.778H880.021V175.925H882.618V166.879L880.144 168.44L879.716 167.716L882.77 165.72H883.595V175.925Z" fill="url(#paint56_linear_122_130)"/>
<path d="M882.679 183.955C883.768 183.955 884.593 184.443 885.153 185.42C885.723 186.385 886.008 187.791 886.008 189.637C886.008 191.482 885.723 192.893 885.153 193.87C884.593 194.846 883.768 195.335 882.679 195.335C881.599 195.335 880.775 194.846 880.205 193.87C879.635 192.893 879.35 191.482 879.35 189.637C879.35 187.802 879.635 186.396 880.205 185.42C880.775 184.443 881.599 183.955 882.679 183.955ZM880.434 189.637C880.434 190.946 880.546 191.971 880.77 192.711L884.16 185.58C883.804 185.076 883.31 184.824 882.679 184.824C881.976 184.824 881.426 185.221 881.029 186.015C880.632 186.798 880.434 188.006 880.434 189.637ZM882.679 194.449C883.391 194.449 883.946 194.058 884.343 193.274C884.74 192.48 884.939 191.268 884.939 189.637C884.939 188.252 884.812 187.179 884.557 186.417L881.167 193.612C881.533 194.17 882.037 194.449 882.679 194.449Z" fill="url(#paint57_linear_122_130)"/>
<path d="M883.595 212.716H885.84V213.569H880.021V212.716H882.618V203.67L880.144 205.231L879.716 204.507L882.77 202.511H883.595V212.716Z" fill="url(#paint58_linear_122_130)"/>
<path d="M883.595 231.112H885.84V231.965H880.021V231.112H882.618V222.066L880.144 223.627L879.716 222.903L882.77 220.907H883.595V231.112Z" fill="url(#paint59_linear_122_130)"/>
<path d="M911.039 36.791C912.129 36.791 912.953 37.2792 913.513 38.2557C914.083 39.2215 914.368 40.6272 914.368 42.4729C914.368 44.3185 914.083 45.7296 913.513 46.7061C912.953 47.6826 912.129 48.1709 911.039 48.1709C909.96 48.1709 909.136 47.6826 908.565 46.7061C907.995 45.7296 907.71 44.3185 907.71 42.4729C907.71 40.6379 907.995 39.2322 908.565 38.2557C909.136 37.2792 909.96 36.791 911.039 36.791ZM908.794 42.4729C908.794 43.782 908.906 44.8068 909.13 45.5472L912.521 38.4167C912.164 37.9123 911.671 37.6601 911.039 37.6601C910.337 37.6601 909.787 38.0572 909.39 38.8512C908.993 39.6346 908.794 40.8418 908.794 42.4729ZM911.039 47.2856C911.752 47.2856 912.307 46.8939 912.704 46.1106C913.101 45.3165 913.299 44.1039 913.299 42.4729C913.299 41.0886 913.172 40.0155 912.918 39.2536L909.527 46.4486C909.894 47.0066 910.398 47.2856 911.039 47.2856Z" fill="url(#paint60_linear_122_130)"/>
<path d="M911.956 65.5523H914.2V66.4054H908.382V65.5523H910.978V56.5063L908.504 58.0676L908.077 57.3433L911.131 55.3474H911.956V65.5523Z" fill="url(#paint61_linear_122_130)"/>
<path d="M911.039 73.5819C912.129 73.5819 912.953 74.0702 913.513 75.0467C914.083 76.0124 914.368 77.4181 914.368 79.2638C914.368 81.1095 914.083 82.5206 913.513 83.4971C912.953 84.4736 912.129 84.9618 911.039 84.9618C909.96 84.9618 909.136 84.4736 908.565 83.4971C907.995 82.5206 907.71 81.1095 907.71 79.2638C907.71 77.4289 907.995 76.0231 908.565 75.0467C909.136 74.0702 909.96 73.5819 911.039 73.5819ZM908.794 79.2638C908.794 80.573 908.906 81.5977 909.13 82.3382L912.521 75.2076C912.164 74.7033 911.671 74.4511 911.039 74.4511C910.337 74.4511 909.787 74.8481 909.39 75.6422C908.993 76.4255 908.794 77.6327 908.794 79.2638ZM911.039 84.0765C911.752 84.0765 912.307 83.6849 912.704 82.9015C913.101 82.1075 913.299 80.8949 913.299 79.2638C913.299 77.8796 913.172 76.8065 912.918 76.0446L909.527 83.2395C909.894 83.7975 910.398 84.0765 911.039 84.0765Z" fill="url(#paint62_linear_122_130)"/>
<path d="M911.039 91.9774C912.129 91.9774 912.953 92.4656 913.513 93.4421C914.083 94.4079 914.368 95.8136 914.368 97.6593C914.368 99.505 914.083 100.916 913.513 101.893C912.953 102.869 912.129 103.357 911.039 103.357C909.96 103.357 909.136 102.869 908.565 101.893C907.995 100.916 907.71 99.505 907.71 97.6593C907.71 95.8243 907.995 94.4186 908.565 93.4421C909.136 92.4656 909.96 91.9774 911.039 91.9774ZM908.794 97.6593C908.794 98.9684 908.906 99.9932 909.13 100.734L912.521 93.6031C912.164 93.0987 911.671 92.8466 911.039 92.8466C910.337 92.8466 909.787 93.2436 909.39 94.0377C908.993 94.821 908.794 96.0282 908.794 97.6593ZM911.039 102.472C911.752 102.472 912.307 102.08 912.704 101.297C913.101 100.503 913.299 99.2904 913.299 97.6593C913.299 96.275 913.172 95.202 912.918 94.4401L909.527 101.635C909.894 102.193 910.398 102.472 911.039 102.472Z" fill="url(#paint63_linear_122_130)"/>
<path d="M911.956 120.739H914.2V121.592H908.382V120.739H910.978V111.693L908.504 113.254L908.077 112.53L911.131 110.534H911.956V120.739Z" fill="url(#paint64_linear_122_130)"/>
<path d="M911.039 128.768C912.129 128.768 912.953 129.257 913.513 130.233C914.083 131.199 914.368 132.605 914.368 134.45C914.368 136.296 914.083 137.707 913.513 138.684C912.953 139.66 912.129 140.148 911.039 140.148C909.96 140.148 909.136 139.66 908.565 138.684C907.995 137.707 907.71 136.296 907.71 134.45C907.71 132.615 907.995 131.21 908.565 130.233C909.136 129.257 909.96 128.768 911.039 128.768ZM908.794 134.45C908.794 135.759 908.906 136.784 909.13 137.525L912.521 130.394C912.164 129.89 911.671 129.638 911.039 129.638C910.337 129.638 909.787 130.035 909.39 130.829C908.993 131.612 908.794 132.819 908.794 134.45ZM911.039 139.263C911.752 139.263 912.307 138.871 912.704 138.088C913.101 137.294 913.299 136.081 913.299 134.45C913.299 133.066 913.172 131.993 912.918 131.231L909.527 138.426C909.894 138.984 910.398 139.263 911.039 139.263Z" fill="url(#paint65_linear_122_130)"/>
<path d="M911.956 157.53H914.2V158.383H908.382V157.53H910.978V148.484L908.504 150.045L908.077 149.321L911.131 147.325H911.956V157.53Z" fill="url(#paint66_linear_122_130)"/>
<path d="M911.039 165.559C912.129 165.559 912.953 166.048 913.513 167.024C914.083 167.99 914.368 169.396 914.368 171.241C914.368 173.087 914.083 174.498 913.513 175.474C912.953 176.451 912.129 176.939 911.039 176.939C909.96 176.939 909.136 176.451 908.565 175.474C907.995 174.498 907.71 173.087 907.71 171.241C907.71 169.406 907.995 168.001 908.565 167.024C909.136 166.048 909.96 165.559 911.039 165.559ZM908.794 171.241C908.794 172.55 908.906 173.575 909.13 174.316L912.521 167.185C912.164 166.681 911.671 166.428 911.039 166.428C910.337 166.428 909.787 166.826 909.39 167.62C908.993 168.403 908.794 169.61 908.794 171.241ZM911.039 176.054C911.752 176.054 912.307 175.662 912.704 174.879C913.101 174.085 913.299 172.872 913.299 171.241C913.299 169.857 913.172 168.784 912.918 168.022L909.527 175.217C909.894 175.775 910.398 176.054 911.039 176.054Z" fill="url(#paint67_linear_122_130)"/>
<path d="M911.039 183.955C912.129 183.955 912.953 184.443 913.513 185.42C914.083 186.385 914.368 187.791 914.368 189.637C914.368 191.482 914.083 192.893 913.513 193.87C912.953 194.846 912.129 195.335 911.039 195.335C909.96 195.335 909.136 194.846 908.565 193.87C907.995 192.893 907.71 191.482 907.71 189.637C907.71 187.802 907.995 186.396 908.565 185.42C909.136 184.443 909.96 183.955 911.039 183.955ZM908.794 189.637C908.794 190.946 908.906 191.971 909.13 192.711L912.521 185.58C912.164 185.076 911.671 184.824 911.039 184.824C910.337 184.824 909.787 185.221 909.39 186.015C908.993 186.798 908.794 188.006 908.794 189.637ZM911.039 194.449C911.752 194.449 912.307 194.058 912.704 193.274C913.101 192.48 913.299 191.268 913.299 189.637C913.299 188.252 913.172 187.179 912.918 186.417L909.527 193.612C909.894 194.17 910.398 194.449 911.039 194.449Z" fill="url(#paint68_linear_122_130)"/>
<path d="M911.956 212.716H914.2V213.569H908.382V212.716H910.978V203.67L908.504 205.231L908.077 204.507L911.131 202.511H911.956V212.716Z" fill="url(#paint69_linear_122_130)"/>
<path d="M911.039 220.746C912.129 220.746 912.953 221.234 913.513 222.21C914.083 223.176 914.368 224.582 914.368 226.428C914.368 228.273 914.083 229.684 913.513 230.661C912.953 231.637 912.129 232.126 911.039 232.126C909.96 232.126 909.136 231.637 908.565 230.661C907.995 229.684 907.71 228.273 907.71 226.428C907.71 224.593 907.995 223.187 908.565 222.21C909.136 221.234 909.96 220.746 911.039 220.746ZM908.794 226.428C908.794 227.737 908.906 228.762 909.13 229.502L912.521 222.371C912.164 221.867 911.671 221.615 911.039 221.615C910.337 221.615 909.787 222.012 909.39 222.806C908.993 223.589 908.794 224.797 908.794 226.428ZM911.039 231.24C911.752 231.24 912.307 230.849 912.704 230.065C913.101 229.271 913.299 228.059 913.299 226.428C913.299 225.043 913.172 223.97 912.918 223.208L909.527 230.403C909.894 230.961 910.398 231.24 911.039 231.24Z" fill="url(#paint70_linear_122_130)"/>
<path d="M911.956 249.507H914.2V250.36H908.382V249.507H910.978V240.461L908.504 242.022L908.077 241.298L911.131 239.302H911.956V249.507Z" fill="url(#paint71_linear_122_130)"/>
<path d="M911.956 267.903H914.2V268.756H908.382V267.903H910.978V258.857L908.504 260.418L908.077 259.694L911.131 257.698H911.956V267.903Z" fill="url(#paint72_linear_122_130)"/>
<path d="M868.498 55.1864C869.588 55.1864 870.412 55.6747 870.972 56.6512C871.542 57.6169 871.827 59.0227 871.827 60.8683C871.827 62.714 871.542 64.1251 870.972 65.1016C870.412 66.0781 869.588 66.5663 868.498 66.5663C867.419 66.5663 866.594 66.0781 866.024 65.1016C865.454 64.1251 865.169 62.714 865.169 60.8683C865.169 59.0334 865.454 57.6277 866.024 56.6512C866.594 55.6747 867.419 55.1864 868.498 55.1864ZM866.253 60.8683C866.253 62.1775 866.365 63.2023 866.589 63.9427L869.98 56.8121C869.623 56.3078 869.13 56.0556 868.498 56.0556C867.796 56.0556 867.246 56.4527 866.849 57.2467C866.452 58.0301 866.253 59.2373 866.253 60.8683ZM868.498 65.6811C869.211 65.6811 869.766 65.2894 870.163 64.506C870.56 63.712 870.758 62.4994 870.758 60.8683C870.758 59.4841 870.631 58.411 870.377 57.6491L866.986 64.8441C867.353 65.4021 867.857 65.6811 868.498 65.6811Z" fill="url(#paint73_linear_122_130)"/>
<path d="M868.498 73.5819C869.588 73.5819 870.412 74.0702 870.972 75.0467C871.542 76.0124 871.827 77.4181 871.827 79.2638C871.827 81.1095 871.542 82.5206 870.972 83.4971C870.412 84.4736 869.588 84.9618 868.498 84.9618C867.419 84.9618 866.594 84.4736 866.024 83.4971C865.454 82.5206 865.169 81.1095 865.169 79.2638C865.169 77.4289 865.454 76.0231 866.024 75.0467C866.594 74.0702 867.419 73.5819 868.498 73.5819ZM866.253 79.2638C866.253 80.573 866.365 81.5977 866.589 82.3382L869.98 75.2076C869.623 74.7033 869.13 74.4511 868.498 74.4511C867.796 74.4511 867.246 74.8481 866.849 75.6422C866.452 76.4255 866.253 77.6327 866.253 79.2638ZM868.498 84.0765C869.211 84.0765 869.766 83.6849 870.163 82.9015C870.56 82.1075 870.758 80.8949 870.758 79.2638C870.758 77.8796 870.631 76.8065 870.377 76.0446L866.986 83.2395C867.353 83.7975 867.857 84.0765 868.498 84.0765Z" fill="url(#paint74_linear_122_130)"/>
<path d="M869.415 102.343H871.659V103.196H865.841V102.343H868.437V93.2973L865.963 94.8586L865.536 94.1343L868.59 92.1383H869.415V102.343Z" fill="url(#paint75_linear_122_130)"/>
<path d="M868.498 110.373C869.588 110.373 870.412 110.861 870.972 111.838C871.542 112.803 871.827 114.209 871.827 116.055C871.827 117.9 871.542 119.312 870.972 120.288C870.412 121.265 869.588 121.753 868.498 121.753C867.419 121.753 866.594 121.265 866.024 120.288C865.454 119.312 865.169 117.9 865.169 116.055C865.169 114.22 865.454 112.814 866.024 111.838C866.594 110.861 867.419 110.373 868.498 110.373ZM866.253 116.055C866.253 117.364 866.365 118.389 866.589 119.129L869.98 111.999C869.623 111.494 869.13 111.242 868.498 111.242C867.796 111.242 867.246 111.639 866.849 112.433C866.452 113.216 866.253 114.424 866.253 116.055ZM868.498 120.867C869.211 120.867 869.766 120.476 870.163 119.692C870.56 118.898 870.758 117.686 870.758 116.055C870.758 114.671 870.631 113.597 870.377 112.836L866.986 120.03C867.353 120.588 867.857 120.867 868.498 120.867Z" fill="url(#paint76_linear_122_130)"/>
<path d="M869.415 139.134H871.659V139.987H865.841V139.134H868.437V130.088L865.963 131.65L865.536 130.925L868.59 128.929H869.415V139.134Z" fill="url(#paint77_linear_122_130)"/>
<path d="M869.415 157.53H871.659V158.383H865.841V157.53H868.437V148.484L865.963 150.045L865.536 149.321L868.59 147.325H869.415V157.53Z" fill="url(#paint78_linear_122_130)"/>
<path d="M897.775 28.7613H900.02V29.6144H894.202V28.7613H896.798V19.7154L894.324 21.2767L893.896 20.5523L896.951 18.5564H897.775V28.7613Z" fill="url(#paint79_linear_122_130)"/>
<path d="M896.859 36.791C897.948 36.791 898.773 37.2792 899.333 38.2557C899.903 39.2215 900.188 40.6272 900.188 42.4729C900.188 44.3185 899.903 45.7296 899.333 46.7061C898.773 47.6826 897.948 48.1709 896.859 48.1709C895.78 48.1709 894.955 47.6826 894.385 46.7061C893.815 45.7296 893.53 44.3185 893.53 42.4729C893.53 40.6379 893.815 39.2322 894.385 38.2557C894.955 37.2792 895.78 36.791 896.859 36.791ZM894.614 42.4729C894.614 43.782 894.726 44.8068 894.95 45.5472L898.34 38.4167C897.984 37.9123 897.49 37.6601 896.859 37.6601C896.157 37.6601 895.607 38.0572 895.21 38.8512C894.813 39.6346 894.614 40.8418 894.614 42.4729ZM896.859 47.2856C897.572 47.2856 898.126 46.8939 898.524 46.1106C898.921 45.3165 899.119 44.1039 899.119 42.4729C899.119 41.0886 898.992 40.0155 898.737 39.2536L895.347 46.4486C895.714 47.0066 896.218 47.2856 896.859 47.2856Z" fill="url(#paint80_linear_122_130)"/>
<path d="M897.775 65.5523H900.02V66.4054H894.202V65.5523H896.798V56.5063L894.324 58.0676L893.896 57.3433L896.951 55.3474H897.775V65.5523Z" fill="url(#paint81_linear_122_130)"/>
<path d="M897.775 83.9478H900.02V84.8009H894.202V83.9478H896.798V74.9018L894.324 76.4631L893.896 75.7388L896.951 73.7429H897.775V83.9478Z" fill="url(#paint82_linear_122_130)"/>
<path d="M896.859 91.9774C897.948 91.9774 898.773 92.4656 899.333 93.4421C899.903 94.4079 900.188 95.8136 900.188 97.6593C900.188 99.505 899.903 100.916 899.333 101.893C898.773 102.869 897.948 103.357 896.859 103.357C895.78 103.357 894.955 102.869 894.385 101.893C893.815 100.916 893.53 99.505 893.53 97.6593C893.53 95.8243 893.815 94.4186 894.385 93.4421C894.955 92.4656 895.78 91.9774 896.859 91.9774ZM894.614 97.6593C894.614 98.9684 894.726 99.9932 894.95 100.734L898.34 93.6031C897.984 93.0987 897.49 92.8466 896.859 92.8466C896.157 92.8466 895.607 93.2436 895.21 94.0377C894.813 94.821 894.614 96.0282 894.614 97.6593ZM896.859 102.472C897.572 102.472 898.126 102.08 898.524 101.297C898.921 100.503 899.119 99.2904 899.119 97.6593C899.119 96.275 898.992 95.202 898.737 94.4401L895.347 101.635C895.714 102.193 896.218 102.472 896.859 102.472Z" fill="url(#paint83_linear_122_130)"/>
<path d="M897.775 120.739H900.02V121.592H894.202V120.739H896.798V111.693L894.324 113.254L893.896 112.53L896.951 110.534H897.775V120.739Z" fill="url(#paint84_linear_122_130)"/>
<path d="M897.775 139.134H900.02V139.987H894.202V139.134H896.798V130.088L894.324 131.65L893.896 130.925L896.951 128.929H897.775V139.134Z" fill="url(#paint85_linear_122_130)"/>
<path d="M896.859 147.164C897.948 147.164 898.773 147.652 899.333 148.629C899.903 149.594 900.188 151 900.188 152.846C900.188 154.691 899.903 156.102 899.333 157.079C898.773 158.055 897.948 158.544 896.859 158.544C895.78 158.544 894.955 158.055 894.385 157.079C893.815 156.102 893.53 154.691 893.53 152.846C893.53 151.011 893.815 149.605 894.385 148.629C894.955 147.652 895.78 147.164 896.859 147.164ZM894.614 152.846C894.614 154.155 894.726 155.18 894.95 155.92L898.34 148.79C897.984 148.285 897.49 148.033 896.859 148.033C896.157 148.033 895.607 148.43 895.21 149.224C894.813 150.007 894.614 151.215 894.614 152.846ZM896.859 157.658C897.572 157.658 898.126 157.267 898.524 156.483C898.921 155.689 899.119 154.477 899.119 152.846C899.119 151.461 898.992 150.388 898.737 149.627L895.347 156.821C895.714 157.379 896.218 157.658 896.859 157.658Z" fill="url(#paint86_linear_122_130)"/>
<path d="M897.775 175.925H900.02V176.778H894.202V175.925H896.798V166.879L894.324 168.44L893.896 167.716L896.951 165.72H897.775V175.925Z" fill="url(#paint87_linear_122_130)"/>
<path d="M896.859 183.955C897.948 183.955 898.773 184.443 899.333 185.42C899.903 186.385 900.188 187.791 900.188 189.637C900.188 191.482 899.903 192.893 899.333 193.87C898.773 194.846 897.948 195.335 896.859 195.335C895.78 195.335 894.955 194.846 894.385 193.87C893.815 192.893 893.53 191.482 893.53 189.637C893.53 187.802 893.815 186.396 894.385 185.42C894.955 184.443 895.78 183.955 896.859 183.955ZM894.614 189.637C894.614 190.946 894.726 191.971 894.95 192.711L898.34 185.58C897.984 185.076 897.49 184.824 896.859 184.824C896.157 184.824 895.607 185.221 895.21 186.015C894.813 186.798 894.614 188.006 894.614 189.637ZM896.859 194.449C897.572 194.449 898.126 194.058 898.524 193.274C898.921 192.48 899.119 191.268 899.119 189.637C899.119 188.252 898.992 187.179 898.737 186.417L895.347 193.612C895.714 194.17 896.218 194.449 896.859 194.449Z" fill="url(#paint88_linear_122_130)"/>
<path d="M925.22 18.3955C926.309 18.3955 927.134 18.8837 927.694 19.8602C928.264 20.826 928.549 22.2317 928.549 24.0774C928.549 25.9231 928.264 27.3341 927.694 28.3106C927.134 29.2871 926.309 29.7754 925.22 29.7754C924.14 29.7754 923.316 29.2871 922.746 28.3106C922.176 27.3341 921.891 25.9231 921.891 24.0774C921.891 22.2424 922.176 20.8367 922.746 19.8602C923.316 18.8837 924.14 18.3955 925.22 18.3955ZM922.975 24.0774C922.975 25.3865 923.087 26.4113 923.311 27.1517L926.701 20.0212C926.345 19.5168 925.851 19.2647 925.22 19.2647C924.517 19.2647 923.967 19.6617 923.57 20.4558C923.173 21.2391 922.975 22.4463 922.975 24.0774ZM925.22 28.8901C925.932 28.8901 926.487 28.4984 926.884 27.7151C927.281 26.921 927.48 25.7084 927.48 24.0774C927.48 22.6931 927.353 21.6201 927.098 20.8582L923.708 28.0531C924.074 28.6111 924.578 28.8901 925.22 28.8901Z" fill="url(#paint89_linear_122_130)"/>
<path d="M926.136 47.1568H928.381V48.0099H922.562V47.1568H925.159V38.1108L922.685 39.6721L922.257 38.9478L925.311 36.9519H926.136V47.1568Z" fill="url(#paint90_linear_122_130)"/>
<path d="M926.136 65.5523H928.381V66.4054H922.562V65.5523H925.159V56.5063L922.685 58.0676L922.257 57.3433L925.311 55.3474H926.136V65.5523Z" fill="url(#paint91_linear_122_130)"/>
<path d="M925.22 73.5819C926.309 73.5819 927.134 74.0702 927.694 75.0467C928.264 76.0124 928.549 77.4181 928.549 79.2638C928.549 81.1095 928.264 82.5206 927.694 83.4971C927.134 84.4736 926.309 84.9618 925.22 84.9618C924.14 84.9618 923.316 84.4736 922.746 83.4971C922.176 82.5206 921.891 81.1095 921.891 79.2638C921.891 77.4289 922.176 76.0231 922.746 75.0467C923.316 74.0702 924.14 73.5819 925.22 73.5819ZM922.975 79.2638C922.975 80.573 923.087 81.5977 923.311 82.3382L926.701 75.2076C926.345 74.7033 925.851 74.4511 925.22 74.4511C924.517 74.4511 923.967 74.8481 923.57 75.6422C923.173 76.4255 922.975 77.6327 922.975 79.2638ZM925.22 84.0765C925.932 84.0765 926.487 83.6849 926.884 82.9015C927.281 82.1075 927.48 80.8949 927.48 79.2638C927.48 77.8796 927.353 76.8065 927.098 76.0446L923.708 83.2395C924.074 83.7975 924.578 84.0765 925.22 84.0765Z" fill="url(#paint92_linear_122_130)"/>
<path d="M925.22 91.9774C926.309 91.9774 927.134 92.4656 927.694 93.4421C928.264 94.4079 928.549 95.8136 928.549 97.6593C928.549 99.505 928.264 100.916 927.694 101.893C927.134 102.869 926.309 103.357 925.22 103.357C924.14 103.357 923.316 102.869 922.746 101.893C922.176 100.916 921.891 99.505 921.891 97.6593C921.891 95.8243 922.176 94.4186 922.746 93.4421C923.316 92.4656 924.14 91.9774 925.22 91.9774ZM922.975 97.6593C922.975 98.9684 923.087 99.9932 923.311 100.734L926.701 93.6031C926.345 93.0987 925.851 92.8466 925.22 92.8466C924.517 92.8466 923.967 93.2436 923.57 94.0377C923.173 94.821 922.975 96.0282 922.975 97.6593ZM925.22 102.472C925.932 102.472 926.487 102.08 926.884 101.297C927.281 100.503 927.48 99.2904 927.48 97.6593C927.48 96.275 927.353 95.202 927.098 94.4401L923.708 101.635C924.074 102.193 924.578 102.472 925.22 102.472Z" fill="url(#paint93_linear_122_130)"/>
</g>
</g>
<defs>
<filter id="filter0_f_122_130" x="-400.19" y="-503.495" width="1824.38" height="1365.33" filterUnits="userSpaceOnUse" color-interpolation-filters="sRGB">
<feFlood flood-opacity="0" result="BackgroundImageFix"/>
<feBlend mode="normal" in="SourceGraphic" in2="BackgroundImageFix" result="shape"/>
<feGaussianBlur stdDeviation="200.095" result="effect1_foregroundBlur_122_130"/>
</filter>
<linearGradient id="paint0_linear_122_130" x1="160.74" y1="179.17" x2="160.74" y2="430.478" gradientUnits="userSpaceOnUse">
<stop stop-color="#F7DD43"/>
<stop offset="1" stop-color="#F7DD43" stop-opacity="0"/>
</linearGradient>
<linearGradient id="paint1_linear_122_130" x1="160.74" y1="179.17" x2="160.74" y2="430.478" gradientUnits="userSpaceOnUse">
<stop stop-color="#F7DD43"/>
<stop offset="1" stop-color="#F7DD43" stop-opacity="0"/>
</linearGradient>
<linearGradient id="paint2_linear_122_130" x1="160.74" y1="179.17" x2="160.74" y2="430.478" gradientUnits="userSpaceOnUse">
<stop stop-color="#F7DD43"/>
<stop offset="1" stop-color="#F7DD43" stop-opacity="0"/>
</linearGradient>
<linearGradient id="paint3_linear_122_130" x1="160.74" y1="179.17" x2="160.74" y2="430.478" gradientUnits="userSpaceOnUse">
<stop stop-color="#F7DD43"/>
<stop offset="1" stop-color="#F7DD43" stop-opacity="0"/>
</linearGradient>
<linearGradient id="paint4_linear_122_130" x1="160.74" y1="179.17" x2="160.74" y2="430.478" gradientUnits="userSpaceOnUse">
<stop stop-color="#F7DD43"/>
<stop offset="1" stop-color="#F7DD43" stop-opacity="0"/>
</linearGradient>
<linearGradient id="paint5_linear_122_130" x1="160.74" y1="179.17" x2="160.74" y2="430.478" gradientUnits="userSpaceOnUse">
<stop stop-color="#F7DD43"/>
<stop offset="1" stop-color="#F7DD43" stop-opacity="0"/>
</linearGradient>
<linearGradient id="paint6_linear_122_130" x1="160.74" y1="179.17" x2="160.74" y2="430.478" gradientUnits="userSpaceOnUse">
<stop stop-color="#F7DD43"/>
<stop offset="1" stop-color="#F7DD43" stop-opacity="0"/>
</linearGradient>
<linearGradient id="paint7_linear_122_130" x1="160.74" y1="179.17" x2="160.74" y2="430.478" gradientUnits="userSpaceOnUse">
<stop stop-color="#F7DD43"/>
<stop offset="1" stop-color="#F7DD43" stop-opacity="0"/>
</linearGradient>
<linearGradient id="paint8_linear_122_130" x1="160.74" y1="179.17" x2="160.74" y2="430.478" gradientUnits="userSpaceOnUse">
<stop stop-color="#F7DD43"/>
<stop offset="1" stop-color="#F7DD43" stop-opacity="0"/>
</linearGradient>
<linearGradient id="paint9_linear_122_130" x1="160.74" y1="179.17" x2="160.74" y2="430.478" gradientUnits="userSpaceOnUse">
<stop stop-color="#F7DD43"/>
<stop offset="1" stop-color="#F7DD43" stop-opacity="0"/>
</linearGradient>
<linearGradient id="paint10_linear_122_130" x1="160.74" y1="179.17" x2="160.74" y2="430.478" gradientUnits="userSpaceOnUse">
<stop stop-color="#F7DD43"/>
<stop offset="1" stop-color="#F7DD43" stop-opacity="0"/>
</linearGradient>
<linearGradient id="paint11_linear_122_130" x1="160.74" y1="179.17" x2="160.74" y2="430.478" gradientUnits="userSpaceOnUse">
<stop stop-color="#F7DD43"/>
<stop offset="1" stop-color="#F7DD43" stop-opacity="0"/>
</linearGradient>
<linearGradient id="paint12_linear_122_130" x1="160.74" y1="179.17" x2="160.74" y2="430.478" gradientUnits="userSpaceOnUse">
<stop stop-color="#F7DD43"/>
<stop offset="1" stop-color="#F7DD43" stop-opacity="0"/>
</linearGradient>
<linearGradient id="paint13_linear_122_130" x1="160.74" y1="179.17" x2="160.74" y2="430.478" gradientUnits="userSpaceOnUse">
<stop stop-color="#F7DD43"/>
<stop offset="1" stop-color="#F7DD43" stop-opacity="0"/>
</linearGradient>
<linearGradient id="paint14_linear_122_130" x1="160.74" y1="179.17" x2="160.74" y2="430.478" gradientUnits="userSpaceOnUse">
<stop stop-color="#F7DD43"/>
<stop offset="1" stop-color="#F7DD43" stop-opacity="0"/>
</linearGradient>
<linearGradient id="paint15_linear_122_130" x1="160.74" y1="179.17" x2="160.74" y2="430.478" gradientUnits="userSpaceOnUse">
<stop stop-color="#F7DD43"/>
<stop offset="1" stop-color="#F7DD43" stop-opacity="0"/>
</linearGradient>
<linearGradient id="paint16_linear_122_130" x1="160.74" y1="179.17" x2="160.74" y2="430.478" gradientUnits="userSpaceOnUse">
<stop stop-color="#F7DD43"/>
<stop offset="1" stop-color="#F7DD43" stop-opacity="0"/>
</linearGradient>
<linearGradient id="paint17_linear_122_130" x1="160.74" y1="179.17" x2="160.74" y2="430.478" gradientUnits="userSpaceOnUse">
<stop stop-color="#F7DD43"/>
<stop offset="1" stop-color="#F7DD43" stop-opacity="0"/>
</linearGradient>
<linearGradient id="paint18_linear_122_130" x1="160.74" y1="179.17" x2="160.74" y2="430.478" gradientUnits="userSpaceOnUse">
<stop stop-color="#F7DD43"/>
<stop offset="1" stop-color="#F7DD43" stop-opacity="0"/>
</linearGradient>
<linearGradient id="paint19_linear_122_130" x1="160.74" y1="179.17" x2="160.74" y2="430.478" gradientUnits="userSpaceOnUse">
<stop stop-color="#F7DD43"/>
<stop offset="1" stop-color="#F7DD43" stop-opacity="0"/>
</linearGradient>
<linearGradient id="paint20_linear_122_130" x1="160.74" y1="179.17" x2="160.74" y2="430.478" gradientUnits="userSpaceOnUse">
<stop stop-color="#F7DD43"/>
<stop offset="1" stop-color="#F7DD43" stop-opacity="0"/>
</linearGradient>
<linearGradient id="paint21_linear_122_130" x1="160.74" y1="179.17" x2="160.74" y2="430.478" gradientUnits="userSpaceOnUse">
<stop stop-color="#F7DD43"/>
<stop offset="1" stop-color="#F7DD43" stop-opacity="0"/>
</linearGradient>
<linearGradient id="paint22_linear_122_130" x1="160.74" y1="179.17" x2="160.74" y2="430.478" gradientUnits="userSpaceOnUse">
<stop stop-color="#F7DD43"/>
<stop offset="1" stop-color="#F7DD43" stop-opacity="0"/>
</linearGradient>
<linearGradient id="paint23_linear_122_130" x1="160.74" y1="179.17" x2="160.74" y2="430.478" gradientUnits="userSpaceOnUse">
<stop stop-color="#F7DD43"/>
<stop offset="1" stop-color="#F7DD43" stop-opacity="0"/>
</linearGradient>
<linearGradient id="paint24_linear_122_130" x1="160.74" y1="179.17" x2="160.74" y2="430.478" gradientUnits="userSpaceOnUse">
<stop stop-color="#F7DD43"/>
<stop offset="1" stop-color="#F7DD43" stop-opacity="0"/>
</linearGradient>
<linearGradient id="paint25_linear_122_130" x1="160.74" y1="179.17" x2="160.74" y2="430.478" gradientUnits="userSpaceOnUse">
<stop stop-color="#F7DD43"/>
<stop offset="1" stop-color="#F7DD43" stop-opacity="0"/>
</linearGradient>
<linearGradient id="paint26_linear_122_130" x1="160.74" y1="179.17" x2="160.74" y2="430.478" gradientUnits="userSpaceOnUse">
<stop stop-color="#F7DD43"/>
<stop offset="1" stop-color="#F7DD43" stop-opacity="0"/>
</linearGradient>
<linearGradient id="paint27_linear_122_130" x1="160.74" y1="179.17" x2="160.74" y2="430.478" gradientUnits="userSpaceOnUse">
<stop stop-color="#F7DD43"/>
<stop offset="1" stop-color="#F7DD43" stop-opacity="0"/>
</linearGradient>
<linearGradient id="paint28_linear_122_130" x1="160.74" y1="179.17" x2="160.74" y2="430.478" gradientUnits="userSpaceOnUse">
<stop stop-color="#F7DD43"/>
<stop offset="1" stop-color="#F7DD43" stop-opacity="0"/>
</linearGradient>
<linearGradient id="paint29_linear_122_130" x1="160.74" y1="179.17" x2="160.74" y2="430.478" gradientUnits="userSpaceOnUse">
<stop stop-color="#F7DD43"/>
<stop offset="1" stop-color="#F7DD43" stop-opacity="0"/>
</linearGradient>
<linearGradient id="paint30_linear_122_130" x1="160.74" y1="179.17" x2="160.74" y2="430.478" gradientUnits="userSpaceOnUse">
<stop stop-color="#F7DD43"/>
<stop offset="1" stop-color="#F7DD43" stop-opacity="0"/>
</linearGradient>
<linearGradient id="paint31_linear_122_130" x1="160.74" y1="179.17" x2="160.74" y2="430.478" gradientUnits="userSpaceOnUse">
<stop stop-color="#F7DD43"/>
<stop offset="1" stop-color="#F7DD43" stop-opacity="0"/>
</linearGradient>
<linearGradient id="paint32_linear_122_130" x1="160.74" y1="179.17" x2="160.74" y2="430.478" gradientUnits="userSpaceOnUse">
<stop stop-color="#F7DD43"/>
<stop offset="1" stop-color="#F7DD43" stop-opacity="0"/>
</linearGradient>
<linearGradient id="paint33_linear_122_130" x1="160.74" y1="179.17" x2="160.74" y2="430.478" gradientUnits="userSpaceOnUse">
<stop stop-color="#F7DD43"/>
<stop offset="1" stop-color="#F7DD43" stop-opacity="0"/>
</linearGradient>
<linearGradient id="paint34_linear_122_130" x1="160.74" y1="179.17" x2="160.74" y2="430.478" gradientUnits="userSpaceOnUse">
<stop stop-color="#F7DD43"/>
<stop offset="1" stop-color="#F7DD43" stop-opacity="0"/>
</linearGradient>
<linearGradient id="paint35_linear_122_130" x1="160.74" y1="179.17" x2="160.74" y2="430.478" gradientUnits="userSpaceOnUse">
<stop stop-color="#F7DD43"/>
<stop offset="1" stop-color="#F7DD43" stop-opacity="0"/>
</linearGradient>
<linearGradient id="paint36_linear_122_130" x1="160.74" y1="179.17" x2="160.74" y2="430.478" gradientUnits="userSpaceOnUse">
<stop stop-color="#F7DD43"/>
<stop offset="1" stop-color="#F7DD43" stop-opacity="0"/>
</linearGradient>
<linearGradient id="paint37_linear_122_130" x1="160.74" y1="179.17" x2="160.74" y2="430.478" gradientUnits="userSpaceOnUse">
<stop stop-color="#F7DD43"/>
<stop offset="1" stop-color="#F7DD43" stop-opacity="0"/>
</linearGradient>
<linearGradient id="paint38_linear_122_130" x1="160.74" y1="179.17" x2="160.74" y2="430.478" gradientUnits="userSpaceOnUse">
<stop stop-color="#F7DD43"/>
<stop offset="1" stop-color="#F7DD43" stop-opacity="0"/>
</linearGradient>
<linearGradient id="paint39_linear_122_130" x1="160.74" y1="179.17" x2="160.74" y2="430.478" gradientUnits="userSpaceOnUse">
<stop stop-color="#F7DD43"/>
<stop offset="1" stop-color="#F7DD43" stop-opacity="0"/>
</linearGradient>
<linearGradient id="paint40_linear_122_130" x1="160.74" y1="179.17" x2="160.74" y2="430.478" gradientUnits="userSpaceOnUse">
<stop stop-color="#F7DD43"/>
<stop offset="1" stop-color="#F7DD43" stop-opacity="0"/>
</linearGradient>
<linearGradient id="paint41_linear_122_130" x1="160.74" y1="179.17" x2="160.74" y2="430.478" gradientUnits="userSpaceOnUse">
<stop stop-color="#F7DD43"/>
<stop offset="1" stop-color="#F7DD43" stop-opacity="0"/>
</linearGradient>
<linearGradient id="paint42_linear_122_130" x1="160.74" y1="179.17" x2="160.74" y2="430.478" gradientUnits="userSpaceOnUse">
<stop stop-color="#F7DD43"/>
<stop offset="1" stop-color="#F7DD43" stop-opacity="0"/>
</linearGradient>
<linearGradient id="paint43_linear_122_130" x1="160.74" y1="179.17" x2="160.74" y2="430.478" gradientUnits="userSpaceOnUse">
<stop stop-color="#F7DD43"/>
<stop offset="1" stop-color="#F7DD43" stop-opacity="0"/>
</linearGradient>
<linearGradient id="paint44_linear_122_130" x1="160.74" y1="179.17" x2="160.74" y2="430.478" gradientUnits="userSpaceOnUse">
<stop stop-color="#F7DD43"/>
<stop offset="1" stop-color="#F7DD43" stop-opacity="0"/>
</linearGradient>
<linearGradient id="paint45_linear_122_130" x1="160.74" y1="179.17" x2="160.74" y2="430.478" gradientUnits="userSpaceOnUse">
<stop stop-color="#F7DD43"/>
<stop offset="1" stop-color="#F7DD43" stop-opacity="0"/>
</linearGradient>
<linearGradient id="paint46_linear_122_130" x1="160.74" y1="179.17" x2="160.74" y2="430.478" gradientUnits="userSpaceOnUse">
<stop stop-color="#F7DD43"/>
<stop offset="1" stop-color="#F7DD43" stop-opacity="0"/>
</linearGradient>
<linearGradient id="paint47_linear_122_130" x1="896.859" y1="0" x2="896.859" y2="241.168" gradientUnits="userSpaceOnUse">
<stop stop-color="#F7DD43"/>
<stop offset="1" stop-color="#F7DD43" stop-opacity="0"/>
</linearGradient>
<linearGradient id="paint48_linear_122_130" x1="896.859" y1="0" x2="896.859" y2="241.168" gradientUnits="userSpaceOnUse">
<stop stop-color="#F7DD43"/>
<stop offset="1" stop-color="#F7DD43" stop-opacity="0"/>
</linearGradient>
<linearGradient id="paint49_linear_122_130" x1="896.859" y1="0" x2="896.859" y2="241.168" gradientUnits="userSpaceOnUse">
<stop stop-color="#F7DD43"/>
<stop offset="1" stop-color="#F7DD43" stop-opacity="0"/>
</linearGradient>
<linearGradient id="paint50_linear_122_130" x1="896.859" y1="0" x2="896.859" y2="241.168" gradientUnits="userSpaceOnUse">
<stop stop-color="#F7DD43"/>
<stop offset="1" stop-color="#F7DD43" stop-opacity="0"/>
</linearGradient>
<linearGradient id="paint51_linear_122_130" x1="896.859" y1="0" x2="896.859" y2="241.168" gradientUnits="userSpaceOnUse">
<stop stop-color="#F7DD43"/>
<stop offset="1" stop-color="#F7DD43" stop-opacity="0"/>
</linearGradient>
<linearGradient id="paint52_linear_122_130" x1="896.859" y1="0" x2="896.859" y2="241.168" gradientUnits="userSpaceOnUse">
<stop stop-color="#F7DD43"/>
<stop offset="1" stop-color="#F7DD43" stop-opacity="0"/>
</linearGradient>
<linearGradient id="paint53_linear_122_130" x1="896.859" y1="0" x2="896.859" y2="241.168" gradientUnits="userSpaceOnUse">
<stop stop-color="#F7DD43"/>
<stop offset="1" stop-color="#F7DD43" stop-opacity="0"/>
</linearGradient>
<linearGradient id="paint54_linear_122_130" x1="896.859" y1="0" x2="896.859" y2="241.168" gradientUnits="userSpaceOnUse">
<stop stop-color="#F7DD43"/>
<stop offset="1" stop-color="#F7DD43" stop-opacity="0"/>
</linearGradient>
<linearGradient id="paint55_linear_122_130" x1="896.859" y1="0" x2="896.859" y2="241.168" gradientUnits="userSpaceOnUse">
<stop stop-color="#F7DD43"/>
<stop offset="1" stop-color="#F7DD43" stop-opacity="0"/>
</linearGradient>
<linearGradient id="paint56_linear_122_130" x1="896.859" y1="0" x2="896.859" y2="241.168" gradientUnits="userSpaceOnUse">
<stop stop-color="#F7DD43"/>
<stop offset="1" stop-color="#F7DD43" stop-opacity="0"/>
</linearGradient>
<linearGradient id="paint57_linear_122_130" x1="896.859" y1="0" x2="896.859" y2="241.168" gradientUnits="userSpaceOnUse">
<stop stop-color="#F7DD43"/>
<stop offset="1" stop-color="#F7DD43" stop-opacity="0"/>
</linearGradient>
<linearGradient id="paint58_linear_122_130" x1="896.859" y1="0" x2="896.859" y2="241.168" gradientUnits="userSpaceOnUse">
<stop stop-color="#F7DD43"/>
<stop offset="1" stop-color="#F7DD43" stop-opacity="0"/>
</linearGradient>
<linearGradient id="paint59_linear_122_130" x1="896.859" y1="0" x2="896.859" y2="241.168" gradientUnits="userSpaceOnUse">
<stop stop-color="#F7DD43"/>
<stop offset="1" stop-color="#F7DD43" stop-opacity="0"/>
</linearGradient>
<linearGradient id="paint60_linear_122_130" x1="896.859" y1="0" x2="896.859" y2="241.168" gradientUnits="userSpaceOnUse">
<stop stop-color="#F7DD43"/>
<stop offset="1" stop-color="#F7DD43" stop-opacity="0"/>
</linearGradient>
<linearGradient id="paint61_linear_122_130" x1="896.859" y1="0" x2="896.859" y2="241.168" gradientUnits="userSpaceOnUse">
<stop stop-color="#F7DD43"/>
<stop offset="1" stop-color="#F7DD43" stop-opacity="0"/>
</linearGradient>
<linearGradient id="paint62_linear_122_130" x1="896.859" y1="0" x2="896.859" y2="241.168" gradientUnits="userSpaceOnUse">
<stop stop-color="#F7DD43"/>
<stop offset="1" stop-color="#F7DD43" stop-opacity="0"/>
</linearGradient>
<linearGradient id="paint63_linear_122_130" x1="896.859" y1="0" x2="896.859" y2="241.168" gradientUnits="userSpaceOnUse">
<stop stop-color="#F7DD43"/>
<stop offset="1" stop-color="#F7DD43" stop-opacity="0"/>
</linearGradient>
<linearGradient id="paint64_linear_122_130" x1="896.859" y1="0" x2="896.859" y2="241.168" gradientUnits="userSpaceOnUse">
<stop stop-color="#F7DD43"/>
<stop offset="1" stop-color="#F7DD43" stop-opacity="0"/>
</linearGradient>
<linearGradient id="paint65_linear_122_130" x1="896.859" y1="0" x2="896.859" y2="241.168" gradientUnits="userSpaceOnUse">
<stop stop-color="#F7DD43"/>
<stop offset="1" stop-color="#F7DD43" stop-opacity="0"/>
</linearGradient>
<linearGradient id="paint66_linear_122_130" x1="896.859" y1="0" x2="896.859" y2="241.168" gradientUnits="userSpaceOnUse">
<stop stop-color="#F7DD43"/>
<stop offset="1" stop-color="#F7DD43" stop-opacity="0"/>
</linearGradient>
<linearGradient id="paint67_linear_122_130" x1="896.859" y1="0" x2="896.859" y2="241.168" gradientUnits="userSpaceOnUse">
<stop stop-color="#F7DD43"/>
<stop offset="1" stop-color="#F7DD43" stop-opacity="0"/>
</linearGradient>
<linearGradient id="paint68_linear_122_130" x1="896.859" y1="0" x2="896.859" y2="241.168" gradientUnits="userSpaceOnUse">
<stop stop-color="#F7DD43"/>
<stop offset="1" stop-color="#F7DD43" stop-opacity="0"/>
</linearGradient>
<linearGradient id="paint69_linear_122_130" x1="896.859" y1="0" x2="896.859" y2="241.168" gradientUnits="userSpaceOnUse">
<stop stop-color="#F7DD43"/>
<stop offset="1" stop-color="#F7DD43" stop-opacity="0"/>
</linearGradient>
<linearGradient id="paint70_linear_122_130" x1="896.859" y1="0" x2="896.859" y2="241.168" gradientUnits="userSpaceOnUse">
<stop stop-color="#F7DD43"/>
<stop offset="1" stop-color="#F7DD43" stop-opacity="0"/>
</linearGradient>
<linearGradient id="paint71_linear_122_130" x1="896.859" y1="0" x2="896.859" y2="241.168" gradientUnits="userSpaceOnUse">
<stop stop-color="#F7DD43"/>
<stop offset="1" stop-color="#F7DD43" stop-opacity="0"/>
</linearGradient>
<linearGradient id="paint72_linear_122_130" x1="896.859" y1="0" x2="896.859" y2="241.168" gradientUnits="userSpaceOnUse">
<stop stop-color="#F7DD43"/>
<stop offset="1" stop-color="#F7DD43" stop-opacity="0"/>
</linearGradient>
<linearGradient id="paint73_linear_122_130" x1="896.859" y1="0" x2="896.859" y2="241.168" gradientUnits="userSpaceOnUse">
<stop stop-color="#F7DD43"/>
<stop offset="1" stop-color="#F7DD43" stop-opacity="0"/>
</linearGradient>
<linearGradient id="paint74_linear_122_130" x1="896.859" y1="0" x2="896.859" y2="241.168" gradientUnits="userSpaceOnUse">
<stop stop-color="#F7DD43"/>
<stop offset="1" stop-color="#F7DD43" stop-opacity="0"/>
</linearGradient>
<linearGradient id="paint75_linear_122_130" x1="896.859" y1="0" x2="896.859" y2="241.168" gradientUnits="userSpaceOnUse">
<stop stop-color="#F7DD43"/>
<stop offset="1" stop-color="#F7DD43" stop-opacity="0"/>
</linearGradient>
<linearGradient id="paint76_linear_122_130" x1="896.859" y1="0" x2="896.859" y2="241.168" gradientUnits="userSpaceOnUse">
<stop stop-color="#F7DD43"/>
<stop offset="1" stop-color="#F7DD43" stop-opacity="0"/>
</linearGradient>
<linearGradient id="paint77_linear_122_130" x1="896.859" y1="0" x2="896.859" y2="241.168" gradientUnits="userSpaceOnUse">
<stop stop-color="#F7DD43"/>
<stop offset="1" stop-color="#F7DD43" stop-opacity="0"/>
</linearGradient>
<linearGradient id="paint78_linear_122_130" x1="896.859" y1="0" x2="896.859" y2="241.168" gradientUnits="userSpaceOnUse">
<stop stop-color="#F7DD43"/>
<stop offset="1" stop-color="#F7DD43" stop-opacity="0"/>
</linearGradient>
<linearGradient id="paint79_linear_122_130" x1="896.859" y1="0" x2="896.859" y2="241.168" gradientUnits="userSpaceOnUse">
<stop stop-color="#F7DD43"/>
<stop offset="1" stop-color="#F7DD43" stop-opacity="0"/>
</linearGradient>
<linearGradient id="paint80_linear_122_130" x1="896.859" y1="0" x2="896.859" y2="241.168" gradientUnits="userSpaceOnUse">
<stop stop-color="#F7DD43"/>
<stop offset="1" stop-color="#F7DD43" stop-opacity="0"/>
</linearGradient>
<linearGradient id="paint81_linear_122_130" x1="896.859" y1="0" x2="896.859" y2="241.168" gradientUnits="userSpaceOnUse">
<stop stop-color="#F7DD43"/>
<stop offset="1" stop-color="#F7DD43" stop-opacity="0"/>
</linearGradient>
<linearGradient id="paint82_linear_122_130" x1="896.859" y1="0" x2="896.859" y2="241.168" gradientUnits="userSpaceOnUse">
<stop stop-color="#F7DD43"/>
<stop offset="1" stop-color="#F7DD43" stop-opacity="0"/>
</linearGradient>
<linearGradient id="paint83_linear_122_130" x1="896.859" y1="0" x2="896.859" y2="241.168" gradientUnits="userSpaceOnUse">
<stop stop-color="#F7DD43"/>
<stop offset="1" stop-color="#F7DD43" stop-opacity="0"/>
</linearGradient>
<linearGradient id="paint84_linear_122_130" x1="896.859" y1="0" x2="896.859" y2="241.168" gradientUnits="userSpaceOnUse">
<stop stop-color="#F7DD43"/>
<stop offset="1" stop-color="#F7DD43" stop-opacity="0"/>
</linearGradient>
<linearGradient id="paint85_linear_122_130" x1="896.859" y1="0" x2="896.859" y2="241.168" gradientUnits="userSpaceOnUse">
<stop stop-color="#F7DD43"/>
<stop offset="1" stop-color="#F7DD43" stop-opacity="0"/>
</linearGradient>
<linearGradient id="paint86_linear_122_130" x1="896.859" y1="0" x2="896.859" y2="241.168" gradientUnits="userSpaceOnUse">
<stop stop-color="#F7DD43"/>
<stop offset="1" stop-color="#F7DD43" stop-opacity="0"/>
</linearGradient>
<linearGradient id="paint87_linear_122_130" x1="896.859" y1="0" x2="896.859" y2="241.168" gradientUnits="userSpaceOnUse">
<stop stop-color="#F7DD43"/>
<stop offset="1" stop-color="#F7DD43" stop-opacity="0"/>
</linearGradient>
<linearGradient id="paint88_linear_122_130" x1="896.859" y1="0" x2="896.859" y2="241.168" gradientUnits="userSpaceOnUse">
<stop stop-color="#F7DD43"/>
<stop offset="1" stop-color="#F7DD43" stop-opacity="0"/>
</linearGradient>
<linearGradient id="paint89_linear_122_130" x1="896.859" y1="0" x2="896.859" y2="241.168" gradientUnits="userSpaceOnUse">
<stop stop-color="#F7DD43"/>
<stop offset="1" stop-color="#F7DD43" stop-opacity="0"/>
</linearGradient>
<linearGradient id="paint90_linear_122_130" x1="896.859" y1="0" x2="896.859" y2="241.168" gradientUnits="userSpaceOnUse">
<stop stop-color="#F7DD43"/>
<stop offset="1" stop-color="#F7DD43" stop-opacity="0"/>
</linearGradient>
<linearGradient id="paint91_linear_122_130" x1="896.859" y1="0" x2="896.859" y2="241.168" gradientUnits="userSpaceOnUse">
<stop stop-color="#F7DD43"/>
<stop offset="1" stop-color="#F7DD43" stop-opacity="0"/>
</linearGradient>
<linearGradient id="paint92_linear_122_130" x1="896.859" y1="0" x2="896.859" y2="241.168" gradientUnits="userSpaceOnUse">
<stop stop-color="#F7DD43"/>
<stop offset="1" stop-color="#F7DD43" stop-opacity="0"/>
</linearGradient>
<linearGradient id="paint93_linear_122_130" x1="896.859" y1="0" x2="896.859" y2="241.168" gradientUnits="userSpaceOnUse">
<stop stop-color="#F7DD43"/>
<stop offset="1" stop-color="#F7DD43" stop-opacity="0"/>
</linearGradient>
<clipPath id="clip0_122_130">
<rect width="1024" height="753" fill="white"/>
</clipPath>
</defs>
</svg>
